<?xml version="1.0" standalone="no"?><svg xmlns="http://www.w3.org/2000/svg" viewBox="0 0 1440 320"><path fill="#7F9F7E" fill-opacity="1" d="M0,128L34.3,149.3C68.6,171,137,213,206,208C274.3,203,343,149,411,128C480,107,549,117,617,144C685.7,171,754,213,823,224C891.4,235,960,213,1029,176C1097.1,139,1166,85,1234,80C1302.9,75,1371,117,1406,138.7L1440,160L1440,320L1405.7,320C1371.4,320,1303,320,1234,320C1165.7,320,1097,320,1029,320C960,320,891,320,823,320C754.3,320,686,320,617,320C548.6,320,480,320,411,320C342.9,320,274,320,206,320C137.1,320,69,320,34,320L0,320Z"></path></svg>