<svg width="1845" height="224" viewBox="0 0 1845 224" fill="none" xmlns="http://www.w3.org/2000/svg">
<g id="Group 10">
<g id="Group 9">
<path id="Vector" d="M-138 102.254L-70.4 80.4219C-2.8 58.9169 44.3 -8.16988 179.5 0.824611C314.7 9.8191 485.3 102.009 620.5 102.254C755.7 102.009 935.3 21.296 1070.5 16.6352C1183 12.757 1309.8 118.663 1445 131.746C1580.2 144.829 1754.8 50.9638 1822.4 37.8809L1890 49.9224V206.917H1822.4C1754.8 206.917 1619.6 206.917 1484.4 206.917C1349.2 206.917 1214 206.917 1078.8 206.917C943.6 206.917 808.4 206.917 673.2 206.917C538 206.917 402.8 206.917 267.6 206.917C132.4 206.917 -2.8 206.917 -70.4 206.917H-138V102.254Z" fill="#3A523A" fill-opacity="0.78"/>
</g>
<path id="Vector_2" d="M-154 118.559L-86.4 96.7265C-18.8 75.2215 78.5 3.22977 251.6 40.0612C386.8 49.0557 522 127.985 657.2 128.23C792.4 127.985 927.6 49.0557 1062.8 44.3949C1198 40.0612 1278.8 115.147 1414 128.23C1549.2 141.313 1738.8 92.3928 1806.4 79.3099L1874 66.227V223.222H1806.4C1738.8 223.222 1603.6 223.222 1468.4 223.222C1333.2 223.222 1198 223.222 1062.8 223.222C927.6 223.222 792.4 223.222 657.2 223.222C522 223.222 386.8 223.222 251.6 223.222C116.4 223.222 -18.8 223.222 -86.4 223.222H-154V118.559Z" fill="#7F9F7E"/>
</g>
</svg>
