<svg width="1845" height="194" viewBox="0 0 1845 194" fill="none" xmlns="http://www.w3.org/2000/svg">
<path id="Vector" d="M-84 89.3288L-16.4 67.4967C51.2 45.9917 148.5 -26 321.6 10.8315C456.8 19.826 592 98.7548 727.2 99.0001C862.4 98.7548 997.6 19.826 1132.8 15.1652C1268 10.8315 1348.8 85.9172 1484 99.0001C1619.2 112.083 1808.8 63.163 1876.4 50.0801L1944 36.9973V193.992H1876.4C1808.8 193.992 1673.6 193.992 1538.4 193.992C1403.2 193.992 1268 193.992 1132.8 193.992C997.6 193.992 862.4 193.992 727.2 193.992C592 193.992 456.8 193.992 321.6 193.992C186.4 193.992 51.2 193.992 -16.4 193.992H-84V89.3288Z" fill="#7F9F7E"/>
</svg>
