<svg class="arrays" width="759" height="288" viewBox="0 0 759 288" fill="none" xmlns="http://www.w3.org/2000/svg">
                <g id="Group 13">
                <rect id="PRA" x="179.5" y="61.5" width="94" height="59" fill="#00527F" stroke="white" stroke-width="5"/>
                <rect id="PRB" x="277.5" y="61.5" width="94" height="59" fill="#00527F" stroke="white" stroke-width="5"/>
                <rect id="PRC" x="373.5" y="61.5" width="94" height="59" fill="#00527F" stroke="white" stroke-width="5"/>
                <rect id="PRD" x="469.5" y="61.5" width="94" height="59" fill="#00527F" stroke="white" stroke-width="5"/>
                <rect id="PRE" x="566.5" y="61.5" width="94" height="59" fill="#00527F" stroke="white" stroke-width="5"/>
                <rect id="PRF" x="662.5" y="61.5" width="94" height="59" fill="#00527F" stroke="white" stroke-width="5"/>
                <path id="PLA" d="M225.968 31.032H217.584L216.24 35H210.512L218.64 12.536H224.976L233.104 35H227.312L225.968 31.032ZM224.56 26.808L221.776 18.584L219.024 26.808H224.56Z" fill="#00527F"/>
                <path id="PVA" d="M225.744 91.496V96.04H211.664V91.496H225.744ZM229.427 86.728V81.64H238.291V105H232.595V86.728H229.427Z" fill="white"/>
                <path id="PVB" d="M327.744 91.496V96.04H313.664V91.496H327.744ZM331.427 86.728V81.64H340.291V105H334.595V86.728H331.427Z" fill="white"/>
                <path id="PVC" d="M423.744 91.496V96.04H409.664V91.496H423.744ZM427.427 86.728V81.64H436.291V105H430.595V86.728H427.427ZM423.744 139.496V144.04H409.664V139.496H423.744ZM427.427 134.728V129.64H436.291V153H430.595V134.728H427.427Z" fill="white"/>
                <path id="PVD" d="M513.744 91.496V96.04H499.664V91.496H513.744ZM517.427 86.728V81.64H526.291V105H520.595V86.728H517.427ZM513.744 139.496V144.04H499.664V139.496H513.744ZM517.427 134.728V129.64H526.291V153H520.595V134.728H517.427Z" fill="white"/>
                <path id="PVE" d="M607.744 91.496V96.04H593.664V91.496H607.744ZM611.427 86.728V81.64H620.291V105H614.595V86.728H611.427ZM607.744 139.496V144.04H593.664V139.496H607.744ZM611.427 134.728V129.64H620.291V153H614.595V134.728H611.427Z" fill="white"/>
                <path id="PVF" d="M703.744 91.496V96.04H689.664V91.496H703.744ZM707.427 86.728V81.64H716.291V105H710.595V86.728H707.427ZM703.744 139.496V144.04H689.664V139.496H703.744ZM707.427 134.728V129.64H716.291V153H710.595V134.728H707.427Z" fill="white"/>
                <path id="PARENT" d="M67.104 86.768C67.104 88.0693 66.8053 89.264 66.208 90.352C65.6107 91.4187 64.6933 92.2827 63.456 92.944C62.2187 93.6053 60.6827 93.936 58.848 93.936H55.456V102H49.984V79.536H58.848C60.64 79.536 62.1547 79.8453 63.392 80.464C64.6293 81.0827 65.5573 81.936 66.176 83.024C66.7947 84.112 67.104 85.36 67.104 86.768ZM58.432 89.584C59.4773 89.584 60.256 89.3387 60.768 88.848C61.28 88.3573 61.536 87.664 61.536 86.768C61.536 85.872 61.28 85.1787 60.768 84.688C60.256 84.1973 59.4773 83.952 58.432 83.952H55.456V89.584H58.432ZM68.8648 93.04C68.8648 91.2053 69.2061 89.5947 69.8888 88.208C70.5928 86.8213 71.5421 85.7547 72.7368 85.008C73.9314 84.2613 75.2648 83.888 76.7368 83.888C77.9954 83.888 79.0941 84.144 80.0328 84.656C80.9928 85.168 81.7288 85.84 82.2408 86.672V84.144H87.7128V102H82.2408V99.472C81.7074 100.304 80.9608 100.976 80.0008 101.488C79.0621 102 77.9634 102.256 76.7048 102.256C75.2541 102.256 73.9314 101.883 72.7368 101.136C71.5421 100.368 70.5928 99.2907 69.8888 97.904C69.2061 96.496 68.8648 94.8747 68.8648 93.04ZM82.2408 93.072C82.2408 91.7067 81.8568 90.6293 81.0888 89.84C80.3421 89.0507 79.4248 88.656 78.3368 88.656C77.2488 88.656 76.3208 89.0507 75.5528 89.84C74.8061 90.608 74.4328 91.6747 74.4328 93.04C74.4328 94.4053 74.8061 95.4933 75.5528 96.304C76.3208 97.0933 77.2488 97.488 78.3368 97.488C79.4248 97.488 80.3421 97.0933 81.0888 96.304C81.8568 95.5147 82.2408 94.4373 82.2408 93.072ZM97.1435 87.12C97.7835 86.1387 98.5835 85.3707 99.5435 84.816C100.504 84.24 101.57 83.952 102.744 83.952V89.744H101.24C99.8742 89.744 98.8502 90.0427 98.1675 90.64C97.4848 91.216 97.1435 92.24 97.1435 93.712V102H91.6715V84.144H97.1435V87.12ZM122.191 92.784C122.191 93.296 122.159 93.8293 122.095 94.384H109.711C109.796 95.4933 110.148 96.3467 110.767 96.944C111.407 97.52 112.186 97.808 113.103 97.808C114.468 97.808 115.418 97.232 115.951 96.08H121.775C121.476 97.2533 120.932 98.3093 120.143 99.248C119.375 100.187 118.404 100.923 117.231 101.456C116.058 101.989 114.746 102.256 113.295 102.256C111.546 102.256 109.988 101.883 108.623 101.136C107.258 100.389 106.191 99.3227 105.423 97.936C104.655 96.5493 104.271 94.928 104.271 93.072C104.271 91.216 104.644 89.5947 105.391 88.208C106.159 86.8213 107.226 85.7547 108.591 85.008C109.956 84.2613 111.524 83.888 113.295 83.888C115.023 83.888 116.559 84.2507 117.903 84.976C119.247 85.7013 120.292 86.736 121.039 88.08C121.807 89.424 122.191 90.992 122.191 92.784ZM116.591 91.344C116.591 90.4053 116.271 89.6587 115.631 89.104C114.991 88.5493 114.191 88.272 113.231 88.272C112.314 88.272 111.535 88.5387 110.895 89.072C110.276 89.6053 109.892 90.3627 109.743 91.344H116.591ZM135.958 83.952C138.048 83.952 139.712 84.6347 140.95 86C142.208 87.344 142.838 89.2 142.838 91.568V102H137.398V92.304C137.398 91.1093 137.088 90.1813 136.47 89.52C135.851 88.8587 135.019 88.528 133.974 88.528C132.928 88.528 132.096 88.8587 131.478 89.52C130.859 90.1813 130.55 91.1093 130.55 92.304V102H125.078V84.144H130.55V86.512C131.104 85.7227 131.851 85.104 132.79 84.656C133.728 84.1867 134.784 83.952 135.958 83.952ZM156.592 97.36V102H153.808C151.824 102 150.278 101.52 149.168 100.56C148.059 99.5787 147.504 97.9893 147.504 95.792V88.688H145.328V84.144H147.504V79.792H152.976V84.144H156.56V88.688H152.976V95.856C152.976 96.3893 153.104 96.7733 153.36 97.008C153.616 97.2427 154.043 97.36 154.64 97.36H156.592ZM162.2 102.256C161.24 102.256 160.451 101.979 159.832 101.424C159.235 100.848 158.936 100.144 158.936 99.312C158.936 98.4587 159.235 97.744 159.832 97.168C160.451 96.592 161.24 96.304 162.2 96.304C163.139 96.304 163.907 96.592 164.504 97.168C165.123 97.744 165.432 98.4587 165.432 99.312C165.432 100.144 165.123 100.848 164.504 101.424C163.907 101.979 163.139 102.256 162.2 102.256ZM162.2 89.232C161.24 89.232 160.451 88.9547 159.832 88.4C159.235 87.824 158.936 87.12 158.936 86.288C158.936 85.4347 159.235 84.72 159.832 84.144C160.451 83.568 161.24 83.28 162.2 83.28C163.139 83.28 163.907 83.568 164.504 84.144C165.123 84.72 165.432 85.4347 165.432 86.288C165.432 87.12 165.123 87.824 164.504 88.4C163.907 88.9547 163.139 89.232 162.2 89.232Z" fill="#00527F"/>
                <path id="PLB" d="M327.584 23.48C328.885 23.7573 329.931 24.408 330.72 25.432C331.509 26.4347 331.904 27.5867 331.904 28.888C331.904 30.7653 331.243 32.2587 329.92 33.368C328.619 34.456 326.795 35 324.448 35H313.984V12.536H324.096C326.379 12.536 328.16 13.0587 329.44 14.104C330.741 15.1493 331.392 16.568 331.392 18.36C331.392 19.6827 331.04 20.7813 330.336 21.656C329.653 22.5307 328.736 23.1387 327.584 23.48ZM319.456 21.624H323.04C323.936 21.624 324.619 21.432 325.088 21.048C325.579 20.6427 325.824 20.056 325.824 19.288C325.824 18.52 325.579 17.9333 325.088 17.528C324.619 17.1227 323.936 16.92 323.04 16.92H319.456V21.624ZM323.488 30.584C324.405 30.584 325.109 30.3813 325.6 29.976C326.112 29.5493 326.368 28.9413 326.368 28.152C326.368 27.3627 326.101 26.744 325.568 26.296C325.056 25.848 324.341 25.624 323.424 25.624H319.456V30.584H323.488Z" fill="#00527F"/>
                <path id="PLC" d="M408.056 23.736C408.056 21.5173 408.536 19.544 409.496 17.816C410.456 16.0667 411.789 14.712 413.496 13.752C415.224 12.7707 417.176 12.28 419.352 12.28C422.019 12.28 424.301 12.984 426.2 14.392C428.099 15.8 429.368 17.72 430.008 20.152H423.992C423.544 19.2133 422.904 18.4987 422.072 18.008C421.261 17.5173 420.333 17.272 419.288 17.272C417.603 17.272 416.237 17.8587 415.192 19.032C414.147 20.2053 413.624 21.7733 413.624 23.736C413.624 25.6987 414.147 27.2667 415.192 28.44C416.237 29.6133 417.603 30.2 419.288 30.2C420.333 30.2 421.261 29.9547 422.072 29.464C422.904 28.9733 423.544 28.2587 423.992 27.32H430.008C429.368 29.752 428.099 31.672 426.2 33.08C424.301 34.4667 422.019 35.16 419.352 35.16C417.176 35.16 415.224 34.68 413.496 33.72C411.789 32.7387 410.456 31.384 409.496 29.656C408.536 27.928 408.056 25.9547 408.056 23.736Z" fill="#00527F"/>
                <path id="PLD" d="M510.4 12.536C512.768 12.536 514.837 13.0053 516.608 13.944C518.379 14.8827 519.744 16.2053 520.704 17.912C521.685 19.5973 522.176 21.5493 522.176 23.768C522.176 25.9653 521.685 27.9173 520.704 29.624C519.744 31.3307 518.368 32.6533 516.576 33.592C514.805 34.5307 512.747 35 510.4 35H501.984V12.536H510.4ZM510.048 30.264C512.117 30.264 513.728 29.6987 514.88 28.568C516.032 27.4373 516.608 25.8373 516.608 23.768C516.608 21.6987 516.032 20.088 514.88 18.936C513.728 17.784 512.117 17.208 510.048 17.208H507.456V30.264H510.048Z" fill="#00527F"/>
                <path id="PLE" d="M604.456 16.92V21.464H611.784V25.688H604.456V30.616H612.744V35H598.984V12.536H612.744V16.92H604.456Z" fill="#00527F"/>
                <path id="PLF" d="M708.608 12.536V16.92H699.456V21.656H706.304V25.912H699.456V35H693.984V12.536H708.608Z" fill="#00527F"/>
                <rect id="IA" x="179.5" y="223.5" width="94" height="59" fill="#00527F" stroke="white" stroke-width="5"/>
                <rect id="IB" x="277.5" y="223.5" width="94" height="59" fill="#00527F" stroke="white" stroke-width="5"/>
                <rect id="IC" x="373.5" y="223.5" width="94" height="59" fill="#00527F" stroke="white" stroke-width="5"/>
                <rect id="ID" x="469.5" y="223.5" width="94" height="59" fill="#00527F" stroke="white" stroke-width="5"/>
                <rect id="IE" x="566.5" y="223.5" width="94" height="59" fill="#00527F" stroke="white" stroke-width="5"/>
                <rect id="IF" x="662.5" y="223.5" width="94" height="59" fill="#00527F" stroke="white" stroke-width="5"/>
                <path id="DVA" d="M228.34 249.28C230.356 249.28 231.952 249.832 233.128 250.936C234.304 252.016 234.892 253.528 234.892 255.472C234.892 256.744 234.604 257.848 234.028 258.784C233.452 259.72 232.672 260.44 231.688 260.944C230.728 261.448 229.66 261.7 228.484 261.7C227.068 261.7 225.82 261.424 224.74 260.872C223.684 260.32 222.676 259.564 221.716 258.604C221.02 259.54 220.144 260.296 219.088 260.872C218.032 261.424 216.88 261.7 215.632 261.7C213.616 261.7 212.02 261.16 210.844 260.08C209.668 258.976 209.08 257.452 209.08 255.508C209.08 254.236 209.368 253.132 209.944 252.196C210.52 251.26 211.288 250.54 212.248 250.036C213.232 249.532 214.312 249.28 215.488 249.28C216.952 249.28 218.2 249.58 219.232 250.18C220.264 250.756 221.224 251.56 222.112 252.592C222.832 251.584 223.72 250.78 224.776 250.18C225.856 249.58 227.044 249.28 228.34 249.28ZM215.992 257.596C216.592 257.596 217.18 257.44 217.756 257.128C218.356 256.816 218.884 256.372 219.34 255.796C218.692 255.004 218.104 254.404 217.576 253.996C217.072 253.588 216.544 253.384 215.992 253.384C215.392 253.384 214.9 253.576 214.516 253.96C214.132 254.32 213.94 254.836 213.94 255.508C213.94 256.18 214.12 256.696 214.48 257.056C214.864 257.416 215.368 257.596 215.992 257.596ZM227.98 257.596C228.58 257.596 229.072 257.416 229.456 257.056C229.84 256.672 230.032 256.144 230.032 255.472C230.032 254.8 229.84 254.284 229.456 253.924C229.096 253.564 228.604 253.384 227.98 253.384C227.308 253.384 226.648 253.576 226 253.96C225.376 254.32 224.848 254.836 224.416 255.508C224.992 256.18 225.556 256.696 226.108 257.056C226.66 257.416 227.284 257.596 227.98 257.596Z" fill="white"/>
                <path id="DVB" d="M331.34 249.28C333.356 249.28 334.952 249.832 336.128 250.936C337.304 252.016 337.892 253.528 337.892 255.472C337.892 256.744 337.604 257.848 337.028 258.784C336.452 259.72 335.672 260.44 334.688 260.944C333.728 261.448 332.66 261.7 331.484 261.7C330.068 261.7 328.82 261.424 327.74 260.872C326.684 260.32 325.676 259.564 324.716 258.604C324.02 259.54 323.144 260.296 322.088 260.872C321.032 261.424 319.88 261.7 318.632 261.7C316.616 261.7 315.02 261.16 313.844 260.08C312.668 258.976 312.08 257.452 312.08 255.508C312.08 254.236 312.368 253.132 312.944 252.196C313.52 251.26 314.288 250.54 315.248 250.036C316.232 249.532 317.312 249.28 318.488 249.28C319.952 249.28 321.2 249.58 322.232 250.18C323.264 250.756 324.224 251.56 325.112 252.592C325.832 251.584 326.72 250.78 327.776 250.18C328.856 249.58 330.044 249.28 331.34 249.28ZM318.992 257.596C319.592 257.596 320.18 257.44 320.756 257.128C321.356 256.816 321.884 256.372 322.34 255.796C321.692 255.004 321.104 254.404 320.576 253.996C320.072 253.588 319.544 253.384 318.992 253.384C318.392 253.384 317.9 253.576 317.516 253.96C317.132 254.32 316.94 254.836 316.94 255.508C316.94 256.18 317.12 256.696 317.48 257.056C317.864 257.416 318.368 257.596 318.992 257.596ZM330.98 257.596C331.58 257.596 332.072 257.416 332.456 257.056C332.84 256.672 333.032 256.144 333.032 255.472C333.032 254.8 332.84 254.284 332.456 253.924C332.096 253.564 331.604 253.384 330.98 253.384C330.308 253.384 329.648 253.576 329 253.96C328.376 254.32 327.848 254.836 327.416 255.508C327.992 256.18 328.556 256.696 329.108 257.056C329.66 257.416 330.284 257.596 330.98 257.596Z" fill="white"/>
                <path id="DVC" d="M426.34 249.28C428.356 249.28 429.952 249.832 431.128 250.936C432.304 252.016 432.892 253.528 432.892 255.472C432.892 256.744 432.604 257.848 432.028 258.784C431.452 259.72 430.672 260.44 429.688 260.944C428.728 261.448 427.66 261.7 426.484 261.7C425.068 261.7 423.82 261.424 422.74 260.872C421.684 260.32 420.676 259.564 419.716 258.604C419.02 259.54 418.144 260.296 417.088 260.872C416.032 261.424 414.88 261.7 413.632 261.7C411.616 261.7 410.02 261.16 408.844 260.08C407.668 258.976 407.08 257.452 407.08 255.508C407.08 254.236 407.368 253.132 407.944 252.196C408.52 251.26 409.288 250.54 410.248 250.036C411.232 249.532 412.312 249.28 413.488 249.28C414.952 249.28 416.2 249.58 417.232 250.18C418.264 250.756 419.224 251.56 420.112 252.592C420.832 251.584 421.72 250.78 422.776 250.18C423.856 249.58 425.044 249.28 426.34 249.28ZM413.992 257.596C414.592 257.596 415.18 257.44 415.756 257.128C416.356 256.816 416.884 256.372 417.34 255.796C416.692 255.004 416.104 254.404 415.576 253.996C415.072 253.588 414.544 253.384 413.992 253.384C413.392 253.384 412.9 253.576 412.516 253.96C412.132 254.32 411.94 254.836 411.94 255.508C411.94 256.18 412.12 256.696 412.48 257.056C412.864 257.416 413.368 257.596 413.992 257.596ZM425.98 257.596C426.58 257.596 427.072 257.416 427.456 257.056C427.84 256.672 428.032 256.144 428.032 255.472C428.032 254.8 427.84 254.284 427.456 253.924C427.096 253.564 426.604 253.384 425.98 253.384C425.308 253.384 424.648 253.576 424 253.96C423.376 254.32 422.848 254.836 422.416 255.508C422.992 256.18 423.556 256.696 424.108 257.056C424.66 257.416 425.284 257.596 425.98 257.596Z" fill="white"/>
                <path id="DVD" d="M523.34 249.28C525.356 249.28 526.952 249.832 528.128 250.936C529.304 252.016 529.892 253.528 529.892 255.472C529.892 256.744 529.604 257.848 529.028 258.784C528.452 259.72 527.672 260.44 526.688 260.944C525.728 261.448 524.66 261.7 523.484 261.7C522.068 261.7 520.82 261.424 519.74 260.872C518.684 260.32 517.676 259.564 516.716 258.604C516.02 259.54 515.144 260.296 514.088 260.872C513.032 261.424 511.88 261.7 510.632 261.7C508.616 261.7 507.02 261.16 505.844 260.08C504.668 258.976 504.08 257.452 504.08 255.508C504.08 254.236 504.368 253.132 504.944 252.196C505.52 251.26 506.288 250.54 507.248 250.036C508.232 249.532 509.312 249.28 510.488 249.28C511.952 249.28 513.2 249.58 514.232 250.18C515.264 250.756 516.224 251.56 517.112 252.592C517.832 251.584 518.72 250.78 519.776 250.18C520.856 249.58 522.044 249.28 523.34 249.28ZM510.992 257.596C511.592 257.596 512.18 257.44 512.756 257.128C513.356 256.816 513.884 256.372 514.34 255.796C513.692 255.004 513.104 254.404 512.576 253.996C512.072 253.588 511.544 253.384 510.992 253.384C510.392 253.384 509.9 253.576 509.516 253.96C509.132 254.32 508.94 254.836 508.94 255.508C508.94 256.18 509.12 256.696 509.48 257.056C509.864 257.416 510.368 257.596 510.992 257.596ZM522.98 257.596C523.58 257.596 524.072 257.416 524.456 257.056C524.84 256.672 525.032 256.144 525.032 255.472C525.032 254.8 524.84 254.284 524.456 253.924C524.096 253.564 523.604 253.384 522.98 253.384C522.308 253.384 521.648 253.576 521 253.96C520.376 254.32 519.848 254.836 519.416 255.508C519.992 256.18 520.556 256.696 521.108 257.056C521.66 257.416 522.284 257.596 522.98 257.596Z" fill="white"/>
                <path id="DVE" d="M615.34 249.28C617.356 249.28 618.952 249.832 620.128 250.936C621.304 252.016 621.892 253.528 621.892 255.472C621.892 256.744 621.604 257.848 621.028 258.784C620.452 259.72 619.672 260.44 618.688 260.944C617.728 261.448 616.66 261.7 615.484 261.7C614.068 261.7 612.82 261.424 611.74 260.872C610.684 260.32 609.676 259.564 608.716 258.604C608.02 259.54 607.144 260.296 606.088 260.872C605.032 261.424 603.88 261.7 602.632 261.7C600.616 261.7 599.02 261.16 597.844 260.08C596.668 258.976 596.08 257.452 596.08 255.508C596.08 254.236 596.368 253.132 596.944 252.196C597.52 251.26 598.288 250.54 599.248 250.036C600.232 249.532 601.312 249.28 602.488 249.28C603.952 249.28 605.2 249.58 606.232 250.18C607.264 250.756 608.224 251.56 609.112 252.592C609.832 251.584 610.72 250.78 611.776 250.18C612.856 249.58 614.044 249.28 615.34 249.28ZM602.992 257.596C603.592 257.596 604.18 257.44 604.756 257.128C605.356 256.816 605.884 256.372 606.34 255.796C605.692 255.004 605.104 254.404 604.576 253.996C604.072 253.588 603.544 253.384 602.992 253.384C602.392 253.384 601.9 253.576 601.516 253.96C601.132 254.32 600.94 254.836 600.94 255.508C600.94 256.18 601.12 256.696 601.48 257.056C601.864 257.416 602.368 257.596 602.992 257.596ZM614.98 257.596C615.58 257.596 616.072 257.416 616.456 257.056C616.84 256.672 617.032 256.144 617.032 255.472C617.032 254.8 616.84 254.284 616.456 253.924C616.096 253.564 615.604 253.384 614.98 253.384C614.308 253.384 613.648 253.576 613 253.96C612.376 254.32 611.848 254.836 611.416 255.508C611.992 256.18 612.556 256.696 613.108 257.056C613.66 257.416 614.284 257.596 614.98 257.596Z" fill="white"/>
                <path id="DVF" d="M707.34 249.28C709.356 249.28 710.952 249.832 712.128 250.936C713.304 252.016 713.892 253.528 713.892 255.472C713.892 256.744 713.604 257.848 713.028 258.784C712.452 259.72 711.672 260.44 710.688 260.944C709.728 261.448 708.66 261.7 707.484 261.7C706.068 261.7 704.82 261.424 703.74 260.872C702.684 260.32 701.676 259.564 700.716 258.604C700.02 259.54 699.144 260.296 698.088 260.872C697.032 261.424 695.88 261.7 694.632 261.7C692.616 261.7 691.02 261.16 689.844 260.08C688.668 258.976 688.08 257.452 688.08 255.508C688.08 254.236 688.368 253.132 688.944 252.196C689.52 251.26 690.288 250.54 691.248 250.036C692.232 249.532 693.312 249.28 694.488 249.28C695.952 249.28 697.2 249.58 698.232 250.18C699.264 250.756 700.224 251.56 701.112 252.592C701.832 251.584 702.72 250.78 703.776 250.18C704.856 249.58 706.044 249.28 707.34 249.28ZM694.992 257.596C695.592 257.596 696.18 257.44 696.756 257.128C697.356 256.816 697.884 256.372 698.34 255.796C697.692 255.004 697.104 254.404 696.576 253.996C696.072 253.588 695.544 253.384 694.992 253.384C694.392 253.384 693.9 253.576 693.516 253.96C693.132 254.32 692.94 254.836 692.94 255.508C692.94 256.18 693.12 256.696 693.48 257.056C693.864 257.416 694.368 257.596 694.992 257.596ZM706.98 257.596C707.58 257.596 708.072 257.416 708.456 257.056C708.84 256.672 709.032 256.144 709.032 255.472C709.032 254.8 708.84 254.284 708.456 253.924C708.096 253.564 707.604 253.384 706.98 253.384C706.308 253.384 705.648 253.576 705 253.96C704.376 254.32 703.848 254.836 703.416 255.508C703.992 256.18 704.556 256.696 705.108 257.056C705.66 257.416 706.284 257.596 706.98 257.596Z" fill="white"/>
                <path id="DLA" d="M225.968 193.032H217.584L216.24 197H210.512L218.64 174.536H224.976L233.104 197H227.312L225.968 193.032ZM224.56 188.808L221.776 180.584L219.024 188.808H224.56Z" fill="#00527F"/>
                <path id="DISTANCES" d="M10.4 241.536C12.768 241.536 14.8373 242.005 16.608 242.944C18.3787 243.883 19.744 245.205 20.704 246.912C21.6853 248.597 22.176 250.549 22.176 252.768C22.176 254.965 21.6853 256.917 20.704 258.624C19.744 260.331 18.368 261.653 16.576 262.592C14.8053 263.531 12.7467 264 10.4 264H1.984V241.536H10.4ZM10.048 259.264C12.1173 259.264 13.728 258.699 14.88 257.568C16.032 256.437 16.608 254.837 16.608 252.768C16.608 250.699 16.032 249.088 14.88 247.936C13.728 246.784 12.1173 246.208 10.048 246.208H7.456V259.264H10.048ZM27.986 244.288C27.026 244.288 26.2367 244.011 25.618 243.456C25.0207 242.88 24.722 242.176 24.722 241.344C24.722 240.491 25.0207 239.787 25.618 239.232C26.2367 238.656 27.026 238.368 27.986 238.368C28.9247 238.368 29.6927 238.656 30.29 239.232C30.9087 239.787 31.218 240.491 31.218 241.344C31.218 242.176 30.9087 242.88 30.29 243.456C29.6927 244.011 28.9247 244.288 27.986 244.288ZM30.706 246.144V264H25.234V246.144H30.706ZM41.9355 264.256C40.3782 264.256 38.9915 263.989 37.7755 263.456C36.5595 262.923 35.5995 262.197 34.8955 261.28C34.1915 260.341 33.7968 259.296 33.7115 258.144H39.1195C39.1835 258.763 39.4715 259.264 39.9835 259.648C40.4955 260.032 41.1248 260.224 41.8715 260.224C42.5542 260.224 43.0768 260.096 43.4395 259.84C43.8235 259.563 44.0155 259.211 44.0155 258.784C44.0155 258.272 43.7488 257.899 43.2155 257.664C42.6822 257.408 41.8182 257.131 40.6235 256.832C39.3435 256.533 38.2768 256.224 37.4235 255.904C36.5702 255.563 35.8342 255.04 35.2155 254.336C34.5968 253.611 34.2875 252.64 34.2875 251.424C34.2875 250.4 34.5648 249.472 35.1195 248.64C35.6955 247.787 36.5275 247.115 37.6155 246.624C38.7248 246.133 40.0368 245.888 41.5515 245.888C43.7915 245.888 45.5515 246.443 46.8315 247.552C48.1328 248.661 48.8795 250.133 49.0715 251.968H44.0155C43.9302 251.349 43.6528 250.859 43.1835 250.496C42.7355 250.133 42.1382 249.952 41.3915 249.952C40.7515 249.952 40.2608 250.08 39.9195 250.336C39.5782 250.571 39.4075 250.901 39.4075 251.328C39.4075 251.84 39.6742 252.224 40.2075 252.48C40.7622 252.736 41.6155 252.992 42.7675 253.248C44.0902 253.589 45.1675 253.931 45.9995 254.272C46.8315 254.592 47.5568 255.125 48.1755 255.872C48.8155 256.597 49.1462 257.579 49.1675 258.816C49.1675 259.861 48.8688 260.8 48.2715 261.632C47.6955 262.443 46.8528 263.083 45.7435 263.552C44.6555 264.021 43.3862 264.256 41.9355 264.256ZM62.4673 259.36V264H59.6833C57.6993 264 56.1526 263.52 55.0433 262.56C53.9339 261.579 53.3793 259.989 53.3793 257.792V250.688H51.2033V246.144H53.3793V241.792H58.8513V246.144H62.4353V250.688H58.8513V257.856C58.8513 258.389 58.9793 258.773 59.2353 259.008C59.4913 259.243 59.9179 259.36 60.5153 259.36H62.4673ZM64.4273 255.04C64.4273 253.205 64.7686 251.595 65.4513 250.208C66.1553 248.821 67.1046 247.755 68.2993 247.008C69.4939 246.261 70.8273 245.888 72.2993 245.888C73.5579 245.888 74.6566 246.144 75.5953 246.656C76.5553 247.168 77.2913 247.84 77.8033 248.672V246.144H83.2753V264H77.8033V261.472C77.2699 262.304 76.5233 262.976 75.5633 263.488C74.6246 264 73.5259 264.256 72.2673 264.256C70.8166 264.256 69.4939 263.883 68.2993 263.136C67.1046 262.368 66.1553 261.291 65.4513 259.904C64.7686 258.496 64.4273 256.875 64.4273 255.04ZM77.8033 255.072C77.8033 253.707 77.4193 252.629 76.6513 251.84C75.9046 251.051 74.9873 250.656 73.8993 250.656C72.8113 250.656 71.8833 251.051 71.1153 251.84C70.3686 252.608 69.9953 253.675 69.9953 255.04C69.9953 256.405 70.3686 257.493 71.1153 258.304C71.8833 259.093 72.8113 259.488 73.8993 259.488C74.9873 259.488 75.9046 259.093 76.6513 258.304C77.4193 257.515 77.8033 256.437 77.8033 255.072ZM98.114 245.952C100.205 245.952 101.869 246.635 103.106 248C104.365 249.344 104.994 251.2 104.994 253.568V264H99.554V254.304C99.554 253.109 99.2447 252.181 98.626 251.52C98.0073 250.859 97.1753 250.528 96.13 250.528C95.0847 250.528 94.2527 250.859 93.634 251.52C93.0153 252.181 92.706 253.109 92.706 254.304V264H87.234V246.144H92.706V248.512C93.2607 247.723 94.0073 247.104 94.946 246.656C95.8847 246.187 96.9407 245.952 98.114 245.952ZM107.709 255.072C107.709 253.216 108.082 251.595 108.829 250.208C109.597 248.821 110.653 247.755 111.997 247.008C113.362 246.261 114.919 245.888 116.669 245.888C118.909 245.888 120.775 246.475 122.269 247.648C123.783 248.821 124.775 250.475 125.245 252.608H119.421C118.93 251.243 117.981 250.56 116.573 250.56C115.57 250.56 114.77 250.955 114.173 251.744C113.575 252.512 113.277 253.621 113.277 255.072C113.277 256.523 113.575 257.643 114.173 258.432C114.77 259.2 115.57 259.584 116.573 259.584C117.981 259.584 118.93 258.901 119.421 257.536H125.245C124.775 259.627 123.783 261.269 122.269 262.464C120.754 263.659 118.887 264.256 116.669 264.256C114.919 264.256 113.362 263.883 111.997 263.136C110.653 262.389 109.597 261.323 108.829 259.936C108.082 258.549 107.709 256.928 107.709 255.072ZM145.003 254.784C145.003 255.296 144.972 255.829 144.908 256.384H132.524C132.609 257.493 132.961 258.347 133.58 258.944C134.22 259.52 134.998 259.808 135.916 259.808C137.281 259.808 138.23 259.232 138.764 258.08H144.588C144.289 259.253 143.745 260.309 142.956 261.248C142.188 262.187 141.217 262.923 140.044 263.456C138.87 263.989 137.558 264.256 136.108 264.256C134.358 264.256 132.801 263.883 131.436 263.136C130.07 262.389 129.004 261.323 128.236 259.936C127.468 258.549 127.084 256.928 127.084 255.072C127.084 253.216 127.457 251.595 128.204 250.208C128.972 248.821 130.038 247.755 131.404 247.008C132.769 246.261 134.337 245.888 136.108 245.888C137.836 245.888 139.372 246.251 140.716 246.976C142.06 247.701 143.105 248.736 143.852 250.08C144.62 251.424 145.003 252.992 145.003 254.784ZM139.404 253.344C139.404 252.405 139.084 251.659 138.444 251.104C137.804 250.549 137.004 250.272 136.044 250.272C135.126 250.272 134.348 250.539 133.708 251.072C133.089 251.605 132.705 252.363 132.556 253.344H139.404ZM155.154 264.256C153.597 264.256 152.21 263.989 150.994 263.456C149.778 262.923 148.818 262.197 148.114 261.28C147.41 260.341 147.016 259.296 146.93 258.144H152.338C152.402 258.763 152.69 259.264 153.202 259.648C153.714 260.032 154.344 260.224 155.09 260.224C155.773 260.224 156.296 260.096 156.658 259.84C157.042 259.563 157.234 259.211 157.234 258.784C157.234 258.272 156.968 257.899 156.434 257.664C155.901 257.408 155.037 257.131 153.842 256.832C152.562 256.533 151.496 256.224 150.642 255.904C149.789 255.563 149.053 255.04 148.434 254.336C147.816 253.611 147.506 252.64 147.506 251.424C147.506 250.4 147.784 249.472 148.338 248.64C148.914 247.787 149.746 247.115 150.834 246.624C151.944 246.133 153.256 245.888 154.77 245.888C157.01 245.888 158.77 246.443 160.05 247.552C161.352 248.661 162.098 250.133 162.29 251.968H157.234C157.149 251.349 156.872 250.859 156.402 250.496C155.954 250.133 155.357 249.952 154.61 249.952C153.97 249.952 153.48 250.08 153.138 250.336C152.797 250.571 152.626 250.901 152.626 251.328C152.626 251.84 152.893 252.224 153.426 252.48C153.981 252.736 154.834 252.992 155.986 253.248C157.309 253.589 158.386 253.931 159.218 254.272C160.05 254.592 160.776 255.125 161.394 255.872C162.034 256.597 162.365 257.579 162.386 258.816C162.386 259.861 162.088 260.8 161.49 261.632C160.914 262.443 160.072 263.083 158.962 263.552C157.874 264.021 156.605 264.256 155.154 264.256ZM168.294 264.256C167.334 264.256 166.545 263.979 165.926 263.424C165.329 262.848 165.03 262.144 165.03 261.312C165.03 260.459 165.329 259.744 165.926 259.168C166.545 258.592 167.334 258.304 168.294 258.304C169.233 258.304 170.001 258.592 170.598 259.168C171.217 259.744 171.526 260.459 171.526 261.312C171.526 262.144 171.217 262.848 170.598 263.424C170.001 263.979 169.233 264.256 168.294 264.256ZM168.294 251.232C167.334 251.232 166.545 250.955 165.926 250.4C165.329 249.824 165.03 249.12 165.03 248.288C165.03 247.435 165.329 246.72 165.926 246.144C166.545 245.568 167.334 245.28 168.294 245.28C169.233 245.28 170.001 245.568 170.598 246.144C171.217 246.72 171.526 247.435 171.526 248.288C171.526 249.12 171.217 249.824 170.598 250.4C170.001 250.955 169.233 251.232 168.294 251.232Z" fill="#00527F"/>
                <path id="DLB" d="M327.584 185.48C328.885 185.757 329.931 186.408 330.72 187.432C331.509 188.435 331.904 189.587 331.904 190.888C331.904 192.765 331.243 194.259 329.92 195.368C328.619 196.456 326.795 197 324.448 197H313.984V174.536H324.096C326.379 174.536 328.16 175.059 329.44 176.104C330.741 177.149 331.392 178.568 331.392 180.36C331.392 181.683 331.04 182.781 330.336 183.656C329.653 184.531 328.736 185.139 327.584 185.48ZM319.456 183.624H323.04C323.936 183.624 324.619 183.432 325.088 183.048C325.579 182.643 325.824 182.056 325.824 181.288C325.824 180.52 325.579 179.933 325.088 179.528C324.619 179.123 323.936 178.92 323.04 178.92H319.456V183.624ZM323.488 192.584C324.405 192.584 325.109 192.381 325.6 191.976C326.112 191.549 326.368 190.941 326.368 190.152C326.368 189.363 326.101 188.744 325.568 188.296C325.056 187.848 324.341 187.624 323.424 187.624H319.456V192.584H323.488Z" fill="#00527F"/>
                <path id="DLC" d="M408.056 185.736C408.056 183.517 408.536 181.544 409.496 179.816C410.456 178.067 411.789 176.712 413.496 175.752C415.224 174.771 417.176 174.28 419.352 174.28C422.019 174.28 424.301 174.984 426.2 176.392C428.099 177.8 429.368 179.72 430.008 182.152H423.992C423.544 181.213 422.904 180.499 422.072 180.008C421.261 179.517 420.333 179.272 419.288 179.272C417.603 179.272 416.237 179.859 415.192 181.032C414.147 182.205 413.624 183.773 413.624 185.736C413.624 187.699 414.147 189.267 415.192 190.44C416.237 191.613 417.603 192.2 419.288 192.2C420.333 192.2 421.261 191.955 422.072 191.464C422.904 190.973 423.544 190.259 423.992 189.32H430.008C429.368 191.752 428.099 193.672 426.2 195.08C424.301 196.467 422.019 197.16 419.352 197.16C417.176 197.16 415.224 196.68 413.496 195.72C411.789 194.739 410.456 193.384 409.496 191.656C408.536 189.928 408.056 187.955 408.056 185.736Z" fill="#00527F"/>
                <path id="DLD" d="M510.4 174.536C512.768 174.536 514.837 175.005 516.608 175.944C518.379 176.883 519.744 178.205 520.704 179.912C521.685 181.597 522.176 183.549 522.176 185.768C522.176 187.965 521.685 189.917 520.704 191.624C519.744 193.331 518.368 194.653 516.576 195.592C514.805 196.531 512.747 197 510.4 197H501.984V174.536H510.4ZM510.048 192.264C512.117 192.264 513.728 191.699 514.88 190.568C516.032 189.437 516.608 187.837 516.608 185.768C516.608 183.699 516.032 182.088 514.88 180.936C513.728 179.784 512.117 179.208 510.048 179.208H507.456V192.264H510.048Z" fill="#00527F"/>
                <path id="DLE" d="M604.456 178.92V183.464H611.784V187.688H604.456V192.616H612.744V197H598.984V174.536H612.744V178.92H604.456Z" fill="#00527F"/>
                <path id="DLF" d="M708.608 174.536V178.92H699.456V183.656H706.304V187.912H699.456V197H693.984V174.536H708.608Z" fill="#00527F"/>
                </g>
                </svg>
               
