<svg class="network" width="899" height="914" viewBox="0 0 899 914" fill="none" xmlns="http://www.w3.org/2000/svg">
<g id="Group 12">
<line id="AC" x1="137.088" y1="233.021" x2="451.088" y2="57.0215" stroke="#00527F" stroke-width="16"/>
<line id="BC" x1="140.975" y1="257" x2="769.975" y2="255" stroke="#00527F" stroke-width="16"/>
<line id="BD" x1="137.309" y1="614.902" x2="787.309" y2="276.902" stroke="#00527F" stroke-width="16"/>
<line id="DE" x1="141" y1="641" x2="751" y2="641" stroke="#00527F" stroke-width="16"/>
<line id="CE" x1="112.709" y1="276.912" x2="779.709" y2="625.912" stroke="#00527F" stroke-width="16"/>
<line id="CD" x1="90" y1="602.001" x2="89.9608" y2="283.002" stroke="#00527F" stroke-width="16"/>
<line id="DF" x1="97.2071" y1="664.196" x2="414.207" y2="860.196" stroke="#00527F" stroke-width="16"/>
<line id="EF" x1="795.443" y1="668.653" x2="506.443" y2="861.653" stroke="#00527F" stroke-width="16"/>
<line id="AB" x1="485.836" y1="85.9798" x2="754.836" y2="232.98" stroke="#00527F" stroke-width="16"/>
<line id="BE" x1="817.001" y1="603.1" x2="813.001" y2="284.1" stroke="#00527F" stroke-width="16"/>
<g id="RA">
<g id="g3813">
<path id="path3759" d="M378.012 31.0983V77.5775H378.026C378.084 85.4775 389.842 93.1617 410.847 97.3961C442.24 103.725 482.383 99.9571 500.508 88.9952C506.47 85.3893 509.304 81.4621 509.31 77.5775V31.2138C509.29 35.089 506.455 39.0058 500.508 42.6026C482.383 53.5645 442.24 57.3179 410.847 50.9891C389.767 46.7395 378.001 39.0281 378.026 31.0983H378.012Z" fill="url(#paint0_linear_63_230)"/>
<path id="path4755" d="M500.511 42.7711C496.202 45.3782 490.465 47.6635 483.627 49.4963C476.788 51.3292 468.983 52.6737 460.656 53.4531C452.329 54.2324 443.644 54.4314 435.097 54.0387C426.55 53.646 418.309 52.6692 410.843 51.1641C403.377 49.659 396.834 47.6552 391.586 45.267C386.339 42.8788 382.49 40.153 380.259 37.2454C378.029 34.3377 377.461 31.3052 378.588 28.3208C379.714 25.3365 382.513 22.4589 386.825 19.8524C391.134 17.2452 396.871 14.9599 403.71 13.1271C410.548 11.2943 418.354 9.94979 426.68 9.1704C435.007 8.39101 443.692 8.192 452.239 8.58474C460.786 8.97749 469.028 9.95428 476.493 11.4593C483.959 12.9644 490.503 14.9683 495.75 17.3565C500.998 19.7447 504.847 22.4704 507.077 25.3781C509.307 28.2857 509.875 31.3183 508.749 34.3026C507.622 37.2869 504.823 40.1645 500.511 42.7711Z" fill="#00527F"/>
<path id="path2775" fill-rule="evenodd" clip-rule="evenodd" d="M476.733 29.5204L468.492 34.5044L497.702 40.393L492.208 43.7156L462.998 37.827L454.758 42.8109L449.28 32.8464L476.733 29.5204Z" fill="white"/>
<path id="path4757" fill-rule="evenodd" clip-rule="evenodd" d="M432.578 19.8126L424.337 24.7965L395.128 18.9079L389.634 22.2305L418.844 28.1191L410.603 33.103L438.055 29.7771L432.578 19.8126Z" fill="white"/>
<path id="path4759" fill-rule="evenodd" clip-rule="evenodd" d="M440.633 45.2385L429.215 42.9365L446.079 32.7371L438.467 31.2025L421.602 41.4019L410.184 39.0999L415.902 47.9184L440.633 45.2385Z" fill="white"/>
<path id="path4761" fill-rule="evenodd" clip-rule="evenodd" d="M477.152 23.5238L465.733 21.2219L448.869 31.421L441.257 29.8863L458.121 19.6872L446.702 17.3852L471.433 14.7051L477.152 23.5238Z" fill="white"/>
</g>
<path id="path3798" d="M442.256 8.3984C420.093 8.5718 398.723 12.6657 386.828 19.8594C380.955 23.4112 378.115 27.2761 378.026 31.1039H378.013V77.5831H378.026C378.085 85.483 389.843 93.1673 410.847 97.4017C442.241 103.731 482.384 99.9627 500.509 89.0008C506.471 85.3949 509.305 81.4677 509.31 77.5831V31.3782C509.35 23.4433 497.582 15.7107 476.489 11.4585C465.698 9.28299 453.866 8.30757 442.256 8.3984Z" stroke="white"/>
</g>
<g id="RC">
<g id="g3813_2">
<path id="path3759_2" d="M25.0122 230.098V276.578H25.0259C25.0844 284.477 36.8424 292.162 57.8469 296.396C89.2404 302.725 129.383 298.957 147.508 287.995C153.47 284.389 156.304 280.462 156.31 276.578V230.214C156.29 234.089 153.455 238.006 147.508 241.603C129.383 252.565 89.2404 256.318 57.8469 249.989C36.7673 245.74 25.0005 238.028 25.0259 230.098H25.0122Z" fill="url(#paint1_linear_63_230)"/>
<path id="path4755_2" d="M147.511 241.771C143.202 244.378 137.465 246.664 130.627 248.496C123.788 250.329 115.983 251.674 107.656 252.453C99.3293 253.232 90.6445 253.431 82.0975 253.039C73.5505 252.646 65.3088 251.669 57.843 250.164C50.3773 248.659 43.8338 246.655 38.5862 244.267C33.3386 241.879 29.4898 239.153 27.2595 236.245C25.0291 233.338 24.461 230.305 25.5876 227.321C26.7142 224.337 29.5133 221.459 33.8252 218.852C38.134 216.245 43.8714 213.96 50.7099 212.127C57.5483 210.294 65.3537 208.95 73.6804 208.17C82.0071 207.391 90.6919 207.192 99.2389 207.585C107.786 207.977 116.028 208.954 123.493 210.459C130.959 211.964 137.503 213.968 142.75 216.356C147.998 218.745 151.847 221.47 154.077 224.378C156.307 227.286 156.875 230.318 155.749 233.303C154.622 236.287 151.823 239.165 147.511 241.771Z" fill="#00527F"/>
<path id="path2775_2" fill-rule="evenodd" clip-rule="evenodd" d="M123.733 228.52L115.492 233.504L144.702 239.393L139.208 242.716L109.998 236.827L101.758 241.811L96.2803 231.846L123.733 228.52Z" fill="white"/>
<path id="path4757_2" fill-rule="evenodd" clip-rule="evenodd" d="M79.5781 218.813L71.3374 223.796L42.1276 217.908L36.6338 221.231L65.8435 227.119L57.6028 232.103L85.0555 228.777L79.5781 218.813Z" fill="white"/>
<path id="path4759_2" fill-rule="evenodd" clip-rule="evenodd" d="M87.6334 244.238L76.2147 241.937L93.079 231.737L85.4665 230.203L68.6023 240.402L57.1836 238.1L62.9024 246.918L87.6334 244.238Z" fill="white"/>
<path id="path4761_2" fill-rule="evenodd" clip-rule="evenodd" d="M124.152 222.524L112.733 220.222L95.8693 230.421L88.2568 228.886L105.121 218.687L93.702 216.385L118.433 213.705L124.152 222.524Z" fill="white"/>
</g>
<path id="path3798_2" d="M89.256 207.398C67.0924 207.572 45.7223 211.666 33.8278 218.859C27.955 222.411 25.1151 226.276 25.0262 230.104H25.0125V276.583H25.0262C25.0846 284.483 36.8426 292.167 57.8471 296.402C89.2406 302.731 129.383 298.963 147.508 288.001C153.471 284.395 156.305 280.468 156.31 276.583V230.378C156.35 222.443 144.582 214.711 123.489 210.459C112.698 208.283 100.865 207.308 89.256 207.398Z" stroke="white"/>
</g>
<g id="RB">
<g id="g3813_3">
<path id="path3759_3" d="M740.012 233.098V279.578H740.026C740.084 287.477 751.842 295.162 772.847 299.396C804.24 305.725 844.383 301.957 862.508 290.995C868.47 287.389 871.304 283.462 871.31 279.578V233.214C871.29 237.089 868.455 241.006 862.508 244.603C844.383 255.565 804.24 259.318 772.847 252.989C751.767 248.74 740.001 241.028 740.026 233.098H740.012Z" fill="url(#paint2_linear_63_230)"/>
<path id="path4755_3" d="M862.511 244.771C858.202 247.378 852.465 249.664 845.627 251.496C838.788 253.329 830.983 254.674 822.656 255.453C814.329 256.232 805.644 256.431 797.097 256.039C788.55 255.646 780.309 254.669 772.843 253.164C765.377 251.659 758.834 249.655 753.586 247.267C748.339 244.879 744.49 242.153 742.259 239.245C740.029 236.338 739.461 233.305 740.588 230.321C741.714 227.337 744.513 224.459 748.825 221.852C753.134 219.245 758.871 216.96 765.71 215.127C772.548 213.294 780.354 211.95 788.68 211.17C797.007 210.391 805.692 210.192 814.239 210.585C822.786 210.977 831.028 211.954 838.493 213.459C845.959 214.964 852.503 216.968 857.75 219.356C862.998 221.745 866.847 224.47 869.077 227.378C871.307 230.286 871.875 233.318 870.749 236.303C869.622 239.287 866.823 242.165 862.511 244.771Z" fill="#00527F"/>
<path id="path2775_3" fill-rule="evenodd" clip-rule="evenodd" d="M838.733 231.52L830.492 236.504L859.702 242.393L854.208 245.716L824.998 239.827L816.758 244.811L811.28 234.846L838.733 231.52Z" fill="white"/>
<path id="path4757_3" fill-rule="evenodd" clip-rule="evenodd" d="M794.578 221.813L786.337 226.796L757.128 220.908L751.634 224.231L780.844 230.119L772.603 235.103L800.055 231.777L794.578 221.813Z" fill="white"/>
<path id="path4759_3" fill-rule="evenodd" clip-rule="evenodd" d="M802.633 247.238L791.215 244.937L808.079 234.737L800.467 233.203L783.602 243.402L772.184 241.1L777.902 249.918L802.633 247.238Z" fill="white"/>
<path id="path4761_3" fill-rule="evenodd" clip-rule="evenodd" d="M839.152 225.524L827.733 223.222L810.869 233.421L803.257 231.886L820.121 221.687L808.702 219.385L833.433 216.705L839.152 225.524Z" fill="white"/>
</g>
<path id="path3798_3" d="M804.256 210.398C782.093 210.572 760.723 214.666 748.828 221.859C742.955 225.411 740.115 229.276 740.026 233.104H740.013V279.583H740.026C740.085 287.483 751.843 295.167 772.847 299.402C804.241 305.731 844.384 301.963 862.509 291.001C868.471 287.395 871.305 283.468 871.31 279.583V233.378C871.35 225.443 859.582 217.711 838.489 213.459C827.698 211.283 815.866 210.308 804.256 210.398Z" stroke="white"/>
</g>
<g id="RE">
<g id="g3813_4">
<path id="path3759_4" d="M743.012 616.098V662.578H743.026C743.084 670.477 754.842 678.162 775.847 682.396C807.24 688.725 847.383 684.957 865.508 673.995C871.47 670.389 874.304 666.462 874.31 662.578V616.214C874.29 620.089 871.455 624.006 865.508 627.603C847.383 638.565 807.24 642.318 775.847 635.989C754.767 631.74 743.001 624.028 743.026 616.098H743.012Z" fill="url(#paint3_linear_63_230)"/>
<path id="path4755_4" d="M865.511 627.771C861.202 630.378 855.465 632.664 848.627 634.496C841.788 636.329 833.983 637.674 825.656 638.453C817.329 639.232 808.644 639.431 800.097 639.039C791.55 638.646 783.309 637.669 775.843 636.164C768.377 634.659 761.834 632.655 756.586 630.267C751.339 627.879 747.49 625.153 745.259 622.245C743.029 619.338 742.461 616.305 743.588 613.321C744.714 610.337 747.513 607.459 751.825 604.852C756.134 602.245 761.871 599.96 768.71 598.127C775.548 596.294 783.354 594.95 791.68 594.17C800.007 593.391 808.692 593.192 817.239 593.585C825.786 593.977 834.028 594.954 841.493 596.459C848.959 597.964 855.503 599.968 860.75 602.356C865.998 604.745 869.847 607.47 872.077 610.378C874.307 613.286 874.875 616.318 873.749 619.303C872.622 622.287 869.823 625.165 865.511 627.771Z" fill="#00527F"/>
<path id="path2775_4" fill-rule="evenodd" clip-rule="evenodd" d="M841.733 614.52L833.492 619.504L862.702 625.393L857.208 628.716L827.998 622.827L819.758 627.811L814.28 617.846L841.733 614.52Z" fill="white"/>
<path id="path4757_4" fill-rule="evenodd" clip-rule="evenodd" d="M797.578 604.813L789.337 609.796L760.128 603.908L754.634 607.231L783.844 613.119L775.603 618.103L803.055 614.777L797.578 604.813Z" fill="white"/>
<path id="path4759_4" fill-rule="evenodd" clip-rule="evenodd" d="M805.633 630.238L794.215 627.937L811.079 617.737L803.467 616.203L786.602 626.402L775.184 624.1L780.902 632.918L805.633 630.238Z" fill="white"/>
<path id="path4761_4" fill-rule="evenodd" clip-rule="evenodd" d="M842.152 608.524L830.733 606.222L813.869 616.421L806.257 614.886L823.121 604.687L811.702 602.385L836.433 599.705L842.152 608.524Z" fill="white"/>
</g>
<path id="path3798_4" d="M807.256 593.398C785.093 593.572 763.723 597.666 751.828 604.859C745.955 608.411 743.115 612.276 743.026 616.104H743.013V662.583H743.026C743.085 670.483 754.843 678.167 775.847 682.402C807.241 688.731 847.384 684.963 865.509 674.001C871.471 670.395 874.305 666.468 874.31 662.583V616.378C874.35 608.443 862.582 600.711 841.489 596.459C830.698 594.283 818.866 593.308 807.256 593.398Z" stroke="white"/>
</g>
<g id="RD">
<g id="g3813_5">
<path id="path3759_5" d="M24.0122 614.098V660.578H24.0259C24.0844 668.477 35.8424 676.162 56.8469 680.396C88.2404 686.725 128.383 682.957 146.508 671.995C152.47 668.389 155.304 664.462 155.31 660.578V614.214C155.29 618.089 152.455 622.006 146.508 625.603C128.383 636.565 88.2404 640.318 56.8469 633.989C35.7673 629.74 24.0005 622.028 24.0259 614.098H24.0122Z" fill="url(#paint4_linear_63_230)"/>
<path id="path4755_5" d="M146.511 625.771C142.202 628.378 136.465 630.664 129.627 632.496C122.788 634.329 114.983 635.674 106.656 636.453C98.3293 637.232 89.6445 637.431 81.0975 637.039C72.5505 636.646 64.3088 635.669 56.843 634.164C49.3773 632.659 42.8338 630.655 37.5862 628.267C32.3386 625.879 28.4898 623.153 26.2595 620.245C24.0291 617.338 23.461 614.305 24.5876 611.321C25.7142 608.337 28.5133 605.459 32.8252 602.852C37.134 600.245 42.8714 597.96 49.7099 596.127C56.5483 594.294 64.3537 592.95 72.6804 592.17C81.0071 591.391 89.6919 591.192 98.2389 591.585C106.786 591.977 115.028 592.954 122.493 594.459C129.959 595.964 136.503 597.968 141.75 600.356C146.998 602.745 150.847 605.47 153.077 608.378C155.307 611.286 155.875 614.318 154.749 617.303C153.622 620.287 150.823 623.165 146.511 625.771Z" fill="#00527F"/>
<path id="path2775_5" fill-rule="evenodd" clip-rule="evenodd" d="M122.733 612.52L114.492 617.504L143.702 623.393L138.208 626.716L108.998 620.827L100.758 625.811L95.2803 615.846L122.733 612.52Z" fill="white"/>
<path id="path4757_5" fill-rule="evenodd" clip-rule="evenodd" d="M78.5781 602.813L70.3374 607.796L41.1276 601.908L35.6338 605.231L64.8435 611.119L56.6028 616.103L84.0555 612.777L78.5781 602.813Z" fill="white"/>
<path id="path4759_5" fill-rule="evenodd" clip-rule="evenodd" d="M86.6334 628.238L75.2147 625.937L92.079 615.737L84.4665 614.203L67.6023 624.402L56.1836 622.1L61.9024 630.918L86.6334 628.238Z" fill="white"/>
<path id="path4761_5" fill-rule="evenodd" clip-rule="evenodd" d="M123.152 606.524L111.733 604.222L94.8693 614.421L87.2568 612.886L104.121 602.687L92.702 600.385L117.433 597.705L123.152 606.524Z" fill="white"/>
</g>
<path id="path3798_5" d="M88.256 591.398C66.0924 591.572 44.7223 595.666 32.8278 602.859C26.955 606.411 24.1151 610.276 24.0262 614.104H24.0125V660.583H24.0262C24.0846 668.483 35.8426 676.167 56.8471 680.402C88.2406 686.731 128.383 682.963 146.508 672.001C152.471 668.395 155.305 664.468 155.31 660.583V614.378C155.35 606.443 143.582 598.711 122.489 594.459C111.698 592.283 99.8655 591.308 88.256 591.398Z" stroke="white"/>
</g>
<g id="RF">
<g id="g3813_6">
<path id="path3759_6" d="M390.012 832.098V878.578H390.026C390.084 886.477 401.842 894.162 422.847 898.396C454.24 904.725 494.383 900.957 512.508 889.995C518.47 886.389 521.304 882.462 521.31 878.578V832.214C521.29 836.089 518.455 840.006 512.508 843.603C494.383 854.565 454.24 858.318 422.847 851.989C401.767 847.74 390.001 840.028 390.026 832.098H390.012Z" fill="url(#paint5_linear_63_230)"/>
<path id="path4755_6" d="M512.511 843.771C508.202 846.378 502.465 848.664 495.627 850.496C488.788 852.329 480.983 853.674 472.656 854.453C464.329 855.232 455.644 855.431 447.097 855.039C438.55 854.646 430.309 853.669 422.843 852.164C415.377 850.659 408.834 848.655 403.586 846.267C398.339 843.879 394.49 841.153 392.259 838.245C390.029 835.338 389.461 832.305 390.588 829.321C391.714 826.337 394.513 823.459 398.825 820.852C403.134 818.245 408.871 815.96 415.71 814.127C422.548 812.294 430.354 810.95 438.68 810.17C447.007 809.391 455.692 809.192 464.239 809.585C472.786 809.977 481.028 810.954 488.493 812.459C495.959 813.964 502.503 815.968 507.75 818.356C512.998 820.745 516.847 823.47 519.077 826.378C521.307 829.286 521.875 832.318 520.749 835.303C519.622 838.287 516.823 841.165 512.511 843.771Z" fill="#00527F"/>
<path id="path2775_6" fill-rule="evenodd" clip-rule="evenodd" d="M488.733 830.52L480.492 835.504L509.702 841.393L504.208 844.716L474.998 838.827L466.758 843.811L461.28 833.846L488.733 830.52Z" fill="white"/>
<path id="path4757_6" fill-rule="evenodd" clip-rule="evenodd" d="M444.578 820.813L436.337 825.796L407.128 819.908L401.634 823.231L430.844 829.119L422.603 834.103L450.055 830.777L444.578 820.813Z" fill="white"/>
<path id="path4759_6" fill-rule="evenodd" clip-rule="evenodd" d="M452.633 846.238L441.215 843.937L458.079 833.737L450.467 832.203L433.602 842.402L422.184 840.1L427.902 848.918L452.633 846.238Z" fill="white"/>
<path id="path4761_6" fill-rule="evenodd" clip-rule="evenodd" d="M489.152 824.524L477.733 822.222L460.869 832.421L453.257 830.886L470.121 820.687L458.702 818.385L483.433 815.705L489.152 824.524Z" fill="white"/>
</g>
</g>
<path id="B" d="M818.584 277.48C819.885 277.757 820.931 278.408 821.72 279.432C822.509 280.435 822.904 281.587 822.904 282.888C822.904 284.765 822.243 286.259 820.92 287.368C819.619 288.456 817.795 289 815.448 289H804.984V266.536H815.096C817.379 266.536 819.16 267.059 820.44 268.104C821.741 269.149 822.392 270.568 822.392 272.36C822.392 273.683 822.04 274.781 821.336 275.656C820.653 276.531 819.736 277.139 818.584 277.48ZM810.456 275.624H814.04C814.936 275.624 815.619 275.432 816.088 275.048C816.579 274.643 816.824 274.056 816.824 273.288C816.824 272.52 816.579 271.933 816.088 271.528C815.619 271.123 814.936 270.92 814.04 270.92H810.456V275.624ZM814.488 284.584C815.405 284.584 816.109 284.381 816.6 283.976C817.112 283.549 817.368 282.941 817.368 282.152C817.368 281.363 817.101 280.744 816.568 280.296C816.056 279.848 815.341 279.624 814.424 279.624H810.456V284.584H814.488Z" fill="#FBFFFE"/>
<path id="C" d="M76.056 275.736C76.056 273.517 76.536 271.544 77.496 269.816C78.456 268.067 79.7893 266.712 81.496 265.752C83.224 264.771 85.176 264.28 87.352 264.28C90.0187 264.28 92.3013 264.984 94.2 266.392C96.0987 267.8 97.368 269.72 98.008 272.152H91.992C91.544 271.213 90.904 270.499 90.072 270.008C89.2613 269.517 88.3333 269.272 87.288 269.272C85.6027 269.272 84.2373 269.859 83.192 271.032C82.1467 272.205 81.624 273.773 81.624 275.736C81.624 277.699 82.1467 279.267 83.192 280.44C84.2373 281.613 85.6027 282.2 87.288 282.2C88.3333 282.2 89.2613 281.955 90.072 281.464C90.904 280.973 91.544 280.259 91.992 279.32H98.008C97.368 281.752 96.0987 283.672 94.2 285.08C92.3013 286.467 90.0187 287.16 87.352 287.16C85.176 287.16 83.224 286.68 81.496 285.72C79.7893 284.739 78.456 283.384 77.496 281.656C76.536 279.928 76.056 277.955 76.056 275.736Z" fill="#FBFFFE"/>
<path id="E" d="M809.456 651.92V656.464H816.784V660.688H809.456V665.616H817.744V670H803.984V647.536H817.744V651.92H809.456Z" fill="#FBFFFE"/>
<path id="D" d="M84.4 648.536C86.768 648.536 88.8373 649.005 90.608 649.944C92.3787 650.883 93.744 652.205 94.704 653.912C95.6853 655.597 96.176 657.549 96.176 659.768C96.176 661.965 95.6853 663.917 94.704 665.624C93.744 667.331 92.368 668.653 90.576 669.592C88.8053 670.531 86.7467 671 84.4 671H75.984V648.536H84.4ZM84.048 666.264C86.1173 666.264 87.728 665.699 88.88 664.568C90.032 663.437 90.608 661.837 90.608 659.768C90.608 657.699 90.032 656.088 88.88 654.936C87.728 653.784 86.1173 653.208 84.048 653.208H81.456V666.264H84.048Z" fill="#FBFFFE"/>
<path id="A" d="M443.968 83.032H435.584L434.24 87H428.512L436.64 64.536H442.976L451.104 87H445.312L443.968 83.032ZM442.56 78.808L439.776 70.584L437.024 78.808H442.56Z" fill="#FBFFFE"/>
<path id="F" d="M460.608 867.536V871.92H451.456V876.656H458.304V880.912H451.456V890H445.984V867.536H460.608Z" fill="#FBFFFE"/>
<path id="AB1" d="M664.864 122.728V117.64H673.728V141H668.032V122.728H664.864Z" fill="#00527F"/>
<path id="BD3" d="M42.632 439.232C42.7173 436.949 43.464 435.189 44.872 433.952C46.28 432.715 48.1893 432.096 50.6 432.096C52.2 432.096 53.5653 432.373 54.696 432.928C55.848 433.483 56.712 434.24 57.288 435.2C57.8853 436.16 58.184 437.237 58.184 438.432C58.184 439.84 57.832 440.992 57.128 441.888C56.424 442.763 55.6027 443.36 54.664 443.68V443.808C55.88 444.213 56.84 444.885 57.544 445.824C58.248 446.763 58.6 447.968 58.6 449.44C58.6 450.763 58.2907 451.936 57.672 452.96C57.0747 453.963 56.1893 454.752 55.016 455.328C53.864 455.904 52.488 456.192 50.888 456.192C48.328 456.192 46.28 455.563 44.744 454.304C43.2293 453.045 42.4293 451.147 42.344 448.608H47.656C47.6773 449.547 47.944 450.293 48.456 450.848C48.968 451.381 49.7147 451.648 50.696 451.648C51.528 451.648 52.168 451.413 52.616 450.944C53.0853 450.453 53.32 449.813 53.32 449.024C53.32 448 52.9893 447.264 52.328 446.816C51.688 446.347 50.6533 446.112 49.224 446.112H48.2V441.664H49.224C50.312 441.664 51.1867 441.483 51.848 441.12C52.5307 440.736 52.872 440.064 52.872 439.104C52.872 438.336 52.6587 437.739 52.232 437.312C51.8053 436.885 51.2187 436.672 50.472 436.672C49.6613 436.672 49.0533 436.917 48.648 437.408C48.264 437.899 48.04 438.507 47.976 439.232H42.632Z" fill="#00527F"/>
<path id="AB4" d="M236.568 130.84V126.424L246.68 111.96H252.792V126.104H255.416V130.84H252.792V135H247.32V130.84H236.568ZM247.704 117.976L242.328 126.104H247.704V117.976Z" fill="#00527F"/>
<path id="CE7" d="M859.352 443.736L851.32 463H845.72L853.848 444.344H843.896V439.672H859.352V443.736Z" fill="#00527F"/>
<path id="EF7" d="M714.352 757.736L706.32 777H700.72L708.848 758.344H698.896V753.672H714.352V757.736Z" fill="#00527F"/>
<path id="DF6" d="M228.992 783.944C228.821 783.155 228.523 782.568 228.096 782.184C227.669 781.779 227.061 781.576 226.272 781.576C225.056 781.576 224.181 782.109 223.648 783.176C223.115 784.221 222.837 785.885 222.816 788.168C223.285 787.421 223.957 786.835 224.832 786.408C225.728 785.981 226.709 785.768 227.776 785.768C229.867 785.768 231.541 786.429 232.8 787.752C234.08 789.075 234.72 790.92 234.72 793.288C234.72 794.845 234.4 796.211 233.76 797.384C233.141 798.557 232.224 799.475 231.008 800.136C229.813 800.797 228.395 801.128 226.752 801.128C223.467 801.128 221.184 800.104 219.904 798.056C218.624 795.987 217.984 793.021 217.984 789.16C217.984 785.107 218.656 782.099 220 780.136C221.365 778.152 223.541 777.16 226.528 777.16C228.128 777.16 229.472 777.48 230.56 778.12C231.669 778.739 232.501 779.56 233.056 780.584C233.632 781.608 233.973 782.728 234.08 783.944H228.992ZM226.464 790.088C225.547 790.088 224.779 790.365 224.16 790.92C223.563 791.453 223.264 792.221 223.264 793.224C223.264 794.248 223.541 795.048 224.096 795.624C224.672 796.2 225.483 796.488 226.528 796.488C227.467 796.488 228.203 796.211 228.736 795.656C229.291 795.08 229.568 794.301 229.568 793.32C229.568 792.317 229.301 791.528 228.768 790.952C228.235 790.376 227.467 790.088 226.464 790.088Z" fill="#00527F"/>
<path id="CD2" d="M587.248 355.616C587.973 355.04 588.304 354.773 588.24 354.816C590.331 353.088 591.973 351.669 593.168 350.56C594.384 349.451 595.408 348.288 596.24 347.072C597.072 345.856 597.488 344.672 597.488 343.52C597.488 342.645 597.285 341.963 596.88 341.472C596.475 340.981 595.867 340.736 595.056 340.736C594.245 340.736 593.605 341.045 593.136 341.664C592.688 342.261 592.464 343.115 592.464 344.224H587.184C587.227 342.411 587.611 340.896 588.336 339.68C589.083 338.464 590.053 337.568 591.248 336.992C592.464 336.416 593.808 336.128 595.28 336.128C597.819 336.128 599.728 336.779 601.008 338.08C602.309 339.381 602.96 341.077 602.96 343.168C602.96 345.451 602.181 347.573 600.624 349.536C599.067 351.477 597.083 353.376 594.672 355.232H603.312V359.68H587.248V355.616Z" fill="#00527F"/>
<path id="BC4" d="M454.568 228.84V224.424L464.68 209.96H470.792V224.104H473.416V228.84H470.792V233H465.32V228.84H454.568ZM465.704 215.976L460.328 224.104H465.704V215.976Z" fill="#00527F"/>
<path id="DE4" d="M443.568 614.84V610.424L453.68 595.96H459.792V610.104H462.416V614.84H459.792V619H454.32V614.84H443.568ZM454.704 601.976L449.328 610.104H454.704V601.976Z" fill="#00527F"/>
<path id="BE5" d="M315.888 342.408H305.904V346.824C306.331 346.355 306.928 345.971 307.696 345.672C308.464 345.373 309.296 345.224 310.192 345.224C311.792 345.224 313.115 345.587 314.16 346.312C315.227 347.037 316.005 347.976 316.496 349.128C316.987 350.28 317.232 351.528 317.232 352.872C317.232 355.368 316.528 357.352 315.12 358.824C313.712 360.275 311.728 361 309.168 361C307.461 361 305.979 360.712 304.72 360.136C303.461 359.539 302.491 358.717 301.808 357.672C301.125 356.627 300.752 355.421 300.688 354.056H306.032C306.16 354.717 306.469 355.272 306.96 355.72C307.451 356.147 308.123 356.36 308.976 356.36C309.979 356.36 310.725 356.04 311.216 355.4C311.707 354.76 311.952 353.907 311.952 352.84C311.952 351.795 311.696 350.995 311.184 350.44C310.672 349.885 309.925 349.608 308.944 349.608C308.219 349.608 307.621 349.789 307.152 350.152C306.683 350.493 306.373 350.952 306.224 351.528H300.944V337.608H315.888V342.408Z" fill="#00527F"/>
</g>
<defs>
<linearGradient id="paint0_linear_63_230" x1="378.012" y1="65.7829" x2="509.31" y2="65.7829" gradientUnits="userSpaceOnUse">
<stop stop-color="#00527F"/>
<stop offset="1" stop-color="#8AAAC0"/>
</linearGradient>
<linearGradient id="paint1_linear_63_230" x1="25.0122" y1="264.783" x2="156.31" y2="264.783" gradientUnits="userSpaceOnUse">
<stop stop-color="#00527F"/>
<stop offset="1" stop-color="#8AAAC0"/>
</linearGradient>
<linearGradient id="paint2_linear_63_230" x1="740.012" y1="267.783" x2="871.31" y2="267.783" gradientUnits="userSpaceOnUse">
<stop stop-color="#00527F"/>
<stop offset="1" stop-color="#8AAAC0"/>
</linearGradient>
<linearGradient id="paint3_linear_63_230" x1="743.012" y1="650.783" x2="874.31" y2="650.783" gradientUnits="userSpaceOnUse">
<stop stop-color="#00527F"/>
<stop offset="1" stop-color="#8AAAC0"/>
</linearGradient>
<linearGradient id="paint4_linear_63_230" x1="24.0122" y1="648.783" x2="155.31" y2="648.783" gradientUnits="userSpaceOnUse">
<stop stop-color="#00527F"/>
<stop offset="1" stop-color="#8AAAC0"/>
</linearGradient>
<linearGradient id="paint5_linear_63_230" x1="390.012" y1="866.783" x2="521.31" y2="866.783" gradientUnits="userSpaceOnUse">
<stop stop-color="#00527F"/>
<stop offset="1" stop-color="#8AAAC0"/>
</linearGradient>
</defs>
</svg>
