<svg class="network" width="899" height="914" viewBox="0 0 899 914" fill="none" xmlns="http://www.w3.org/2000/svg">
<g id="Group 12">
<line id="AB" x1="137.088" y1="233.021" x2="451.088" y2="57.0215" stroke="#00527F" stroke-width="16"/>
<line id="BC" x1="140.975" y1="257" x2="769.975" y2="255" stroke="#00527F" stroke-width="16"/>
<line id="CD" x1="137.309" y1="614.902" x2="787.309" y2="276.902" stroke="#00527F" stroke-width="16"/>
<line id="DE" x1="141" y1="641" x2="751" y2="641" stroke="#00527F" stroke-width="16"/>
<line id="BE" x1="112.709" y1="276.912" x2="779.709" y2="625.912" stroke="#00527F" stroke-width="16"/>
<line id="BD" x1="90" y1="602.001" x2="89.9608" y2="283.002" stroke="#00527F" stroke-width="16"/>
<line id="DF" x1="97.2071" y1="664.196" x2="414.207" y2="860.196" stroke="#00527F" stroke-width="16"/>
<line id="EF" x1="795.443" y1="668.653" x2="506.443" y2="861.653" stroke="#00527F" stroke-width="16"/>
<line id="WC" x1="485.836" y1="85.9798" x2="754.836" y2="232.98" stroke="#00527F" stroke-width="16"/>
<line id="CE" x1="817.001" y1="603.1" x2="813.001" y2="284.1" stroke="#00527F" stroke-width="16"/>
<g id="RA">
<g id="g3813">
<path id="path3759" d="M378.012 31.0983V77.5775H378.026C378.084 85.4775 389.842 93.1617 410.847 97.3961C442.24 103.725 482.383 99.9571 500.508 88.9952C506.47 85.3893 509.304 81.4621 509.31 77.5775V31.2138C509.29 35.089 506.455 39.0058 500.508 42.6026C482.383 53.5645 442.24 57.3179 410.847 50.9891C389.767 46.7395 378.001 39.0281 378.026 31.0983H378.012Z" fill="url(#paint0_linear_63_230)"/>
<path id="path4755" d="M500.511 42.7711C496.202 45.3782 490.465 47.6635 483.627 49.4963C476.788 51.3292 468.983 52.6737 460.656 53.4531C452.329 54.2324 443.644 54.4314 435.097 54.0387C426.55 53.646 418.309 52.6692 410.843 51.1641C403.377 49.659 396.834 47.6552 391.586 45.267C386.339 42.8788 382.49 40.153 380.259 37.2454C378.029 34.3377 377.461 31.3052 378.588 28.3208C379.714 25.3365 382.513 22.4589 386.825 19.8524C391.134 17.2452 396.871 14.9599 403.71 13.1271C410.548 11.2943 418.354 9.94979 426.68 9.1704C435.007 8.39101 443.692 8.192 452.239 8.58474C460.786 8.97749 469.028 9.95428 476.493 11.4593C483.959 12.9644 490.503 14.9683 495.75 17.3565C500.998 19.7447 504.847 22.4704 507.077 25.3781C509.307 28.2857 509.875 31.3183 508.749 34.3026C507.622 37.2869 504.823 40.1645 500.511 42.7711Z" fill="#00527F"/>
<path id="path2775" fill-rule="evenodd" clip-rule="evenodd" d="M476.733 29.5204L468.492 34.5044L497.702 40.393L492.208 43.7156L462.998 37.827L454.758 42.8109L449.28 32.8464L476.733 29.5204Z" fill="white"/>
<path id="path4757" fill-rule="evenodd" clip-rule="evenodd" d="M432.578 19.8126L424.337 24.7965L395.128 18.9079L389.634 22.2305L418.844 28.1191L410.603 33.103L438.055 29.7771L432.578 19.8126Z" fill="white"/>
<path id="path4759" fill-rule="evenodd" clip-rule="evenodd" d="M440.633 45.2385L429.215 42.9365L446.079 32.7371L438.467 31.2025L421.602 41.4019L410.184 39.0999L415.902 47.9184L440.633 45.2385Z" fill="white"/>
<path id="path4761" fill-rule="evenodd" clip-rule="evenodd" d="M477.152 23.5238L465.733 21.2219L448.869 31.421L441.257 29.8863L458.121 19.6872L446.702 17.3852L471.433 14.7051L477.152 23.5238Z" fill="white"/>
</g>
<path id="path3798" d="M442.256 8.3984C420.093 8.5718 398.723 12.6657 386.828 19.8594C380.955 23.4112 378.115 27.2761 378.026 31.1039H378.013V77.5831H378.026C378.085 85.483 389.843 93.1673 410.847 97.4017C442.241 103.731 482.384 99.9627 500.509 89.0008C506.471 85.3949 509.305 81.4677 509.31 77.5831V31.3782C509.35 23.4433 497.582 15.7107 476.489 11.4585C465.698 9.28299 453.866 8.30757 442.256 8.3984Z" stroke="white"/>
</g>
<g id="RB">
<g id="g3813_2">
<path id="path3759_2" d="M25.0122 230.098V276.578H25.0259C25.0844 284.477 36.8424 292.162 57.8469 296.396C89.2404 302.725 129.383 298.957 147.508 287.995C153.47 284.389 156.304 280.462 156.31 276.578V230.214C156.29 234.089 153.455 238.006 147.508 241.603C129.383 252.565 89.2404 256.318 57.8469 249.989C36.7673 245.74 25.0005 238.028 25.0259 230.098H25.0122Z" fill="url(#paint1_linear_63_230)"/>
<path id="path4755_2" d="M147.511 241.771C143.202 244.378 137.465 246.664 130.627 248.496C123.788 250.329 115.983 251.674 107.656 252.453C99.3293 253.232 90.6445 253.431 82.0975 253.039C73.5505 252.646 65.3088 251.669 57.843 250.164C50.3773 248.659 43.8338 246.655 38.5862 244.267C33.3386 241.879 29.4898 239.153 27.2595 236.245C25.0291 233.338 24.461 230.305 25.5876 227.321C26.7142 224.337 29.5133 221.459 33.8252 218.852C38.134 216.245 43.8714 213.96 50.7099 212.127C57.5483 210.294 65.3537 208.95 73.6804 208.17C82.0071 207.391 90.6919 207.192 99.2389 207.585C107.786 207.977 116.028 208.954 123.493 210.459C130.959 211.964 137.503 213.968 142.75 216.356C147.998 218.745 151.847 221.47 154.077 224.378C156.307 227.286 156.875 230.318 155.749 233.303C154.622 236.287 151.823 239.165 147.511 241.771Z" fill="#00527F"/>
<path id="path2775_2" fill-rule="evenodd" clip-rule="evenodd" d="M123.733 228.52L115.492 233.504L144.702 239.393L139.208 242.716L109.998 236.827L101.758 241.811L96.2803 231.846L123.733 228.52Z" fill="white"/>
<path id="path4757_2" fill-rule="evenodd" clip-rule="evenodd" d="M79.5781 218.813L71.3374 223.796L42.1276 217.908L36.6338 221.231L65.8435 227.119L57.6028 232.103L85.0555 228.777L79.5781 218.813Z" fill="white"/>
<path id="path4759_2" fill-rule="evenodd" clip-rule="evenodd" d="M87.6334 244.238L76.2147 241.937L93.079 231.737L85.4665 230.203L68.6023 240.402L57.1836 238.1L62.9024 246.918L87.6334 244.238Z" fill="white"/>
<path id="path4761_2" fill-rule="evenodd" clip-rule="evenodd" d="M124.152 222.524L112.733 220.222L95.8693 230.421L88.2568 228.886L105.121 218.687L93.702 216.385L118.433 213.705L124.152 222.524Z" fill="white"/>
</g>
<path id="path3798_2" d="M89.256 207.398C67.0924 207.572 45.7223 211.666 33.8278 218.859C27.955 222.411 25.1151 226.276 25.0262 230.104H25.0125V276.583H25.0262C25.0846 284.483 36.8426 292.167 57.8471 296.402C89.2406 302.731 129.383 298.963 147.508 288.001C153.471 284.395 156.305 280.468 156.31 276.583V230.378C156.35 222.443 144.582 214.711 123.489 210.459C112.698 208.283 100.865 207.308 89.256 207.398Z" stroke="white"/>
</g>
<g id="RC">
<g id="g3813_3">
<path id="path3759_3" d="M740.012 233.098V279.578H740.026C740.084 287.477 751.842 295.162 772.847 299.396C804.24 305.725 844.383 301.957 862.508 290.995C868.47 287.389 871.304 283.462 871.31 279.578V233.214C871.29 237.089 868.455 241.006 862.508 244.603C844.383 255.565 804.24 259.318 772.847 252.989C751.767 248.74 740.001 241.028 740.026 233.098H740.012Z" fill="url(#paint2_linear_63_230)"/>
<path id="path4755_3" d="M862.511 244.771C858.202 247.378 852.465 249.664 845.627 251.496C838.788 253.329 830.983 254.674 822.656 255.453C814.329 256.232 805.644 256.431 797.097 256.039C788.55 255.646 780.309 254.669 772.843 253.164C765.377 251.659 758.834 249.655 753.586 247.267C748.339 244.879 744.49 242.153 742.259 239.245C740.029 236.338 739.461 233.305 740.588 230.321C741.714 227.337 744.513 224.459 748.825 221.852C753.134 219.245 758.871 216.96 765.71 215.127C772.548 213.294 780.354 211.95 788.68 211.17C797.007 210.391 805.692 210.192 814.239 210.585C822.786 210.977 831.028 211.954 838.493 213.459C845.959 214.964 852.503 216.968 857.75 219.356C862.998 221.745 866.847 224.47 869.077 227.378C871.307 230.286 871.875 233.318 870.749 236.303C869.622 239.287 866.823 242.165 862.511 244.771Z" fill="#00527F"/>
<path id="path2775_3" fill-rule="evenodd" clip-rule="evenodd" d="M838.733 231.52L830.492 236.504L859.702 242.393L854.208 245.716L824.998 239.827L816.758 244.811L811.28 234.846L838.733 231.52Z" fill="white"/>
<path id="path4757_3" fill-rule="evenodd" clip-rule="evenodd" d="M794.578 221.813L786.337 226.796L757.128 220.908L751.634 224.231L780.844 230.119L772.603 235.103L800.055 231.777L794.578 221.813Z" fill="white"/>
<path id="path4759_3" fill-rule="evenodd" clip-rule="evenodd" d="M802.633 247.238L791.215 244.937L808.079 234.737L800.467 233.203L783.602 243.402L772.184 241.1L777.902 249.918L802.633 247.238Z" fill="white"/>
<path id="path4761_3" fill-rule="evenodd" clip-rule="evenodd" d="M839.152 225.524L827.733 223.222L810.869 233.421L803.257 231.886L820.121 221.687L808.702 219.385L833.433 216.705L839.152 225.524Z" fill="white"/>
</g>
<path id="path3798_3" d="M804.256 210.398C782.093 210.572 760.723 214.666 748.828 221.859C742.955 225.411 740.115 229.276 740.026 233.104H740.013V279.583H740.026C740.085 287.483 751.843 295.167 772.847 299.402C804.241 305.731 844.384 301.963 862.509 291.001C868.471 287.395 871.305 283.468 871.31 279.583V233.378C871.35 225.443 859.582 217.711 838.489 213.459C827.698 211.283 815.866 210.308 804.256 210.398Z" stroke="white"/>
</g>
<g id="RE">
<g id="g3813_4">
<path id="path3759_4" d="M743.012 616.098V662.578H743.026C743.084 670.477 754.842 678.162 775.847 682.396C807.24 688.725 847.383 684.957 865.508 673.995C871.47 670.389 874.304 666.462 874.31 662.578V616.214C874.29 620.089 871.455 624.006 865.508 627.603C847.383 638.565 807.24 642.318 775.847 635.989C754.767 631.74 743.001 624.028 743.026 616.098H743.012Z" fill="url(#paint3_linear_63_230)"/>
<path id="path4755_4" d="M865.511 627.771C861.202 630.378 855.465 632.664 848.627 634.496C841.788 636.329 833.983 637.674 825.656 638.453C817.329 639.232 808.644 639.431 800.097 639.039C791.55 638.646 783.309 637.669 775.843 636.164C768.377 634.659 761.834 632.655 756.586 630.267C751.339 627.879 747.49 625.153 745.259 622.245C743.029 619.338 742.461 616.305 743.588 613.321C744.714 610.337 747.513 607.459 751.825 604.852C756.134 602.245 761.871 599.96 768.71 598.127C775.548 596.294 783.354 594.95 791.68 594.17C800.007 593.391 808.692 593.192 817.239 593.585C825.786 593.977 834.028 594.954 841.493 596.459C848.959 597.964 855.503 599.968 860.75 602.356C865.998 604.745 869.847 607.47 872.077 610.378C874.307 613.286 874.875 616.318 873.749 619.303C872.622 622.287 869.823 625.165 865.511 627.771Z" fill="#00527F"/>
<path id="path2775_4" fill-rule="evenodd" clip-rule="evenodd" d="M841.733 614.52L833.492 619.504L862.702 625.393L857.208 628.716L827.998 622.827L819.758 627.811L814.28 617.846L841.733 614.52Z" fill="white"/>
<path id="path4757_4" fill-rule="evenodd" clip-rule="evenodd" d="M797.578 604.813L789.337 609.796L760.128 603.908L754.634 607.231L783.844 613.119L775.603 618.103L803.055 614.777L797.578 604.813Z" fill="white"/>
<path id="path4759_4" fill-rule="evenodd" clip-rule="evenodd" d="M805.633 630.238L794.215 627.937L811.079 617.737L803.467 616.203L786.602 626.402L775.184 624.1L780.902 632.918L805.633 630.238Z" fill="white"/>
<path id="path4761_4" fill-rule="evenodd" clip-rule="evenodd" d="M842.152 608.524L830.733 606.222L813.869 616.421L806.257 614.886L823.121 604.687L811.702 602.385L836.433 599.705L842.152 608.524Z" fill="white"/>
</g>
<path id="path3798_4" d="M807.256 593.398C785.093 593.572 763.723 597.666 751.828 604.859C745.955 608.411 743.115 612.276 743.026 616.104H743.013V662.583H743.026C743.085 670.483 754.843 678.167 775.847 682.402C807.241 688.731 847.384 684.963 865.509 674.001C871.471 670.395 874.305 666.468 874.31 662.583V616.378C874.35 608.443 862.582 600.711 841.489 596.459C830.698 594.283 818.866 593.308 807.256 593.398Z" stroke="white"/>
</g>
<g id="RD">
<g id="g3813_5">
<path id="path3759_5" d="M24.0122 614.098V660.578H24.0259C24.0844 668.477 35.8424 676.162 56.8469 680.396C88.2404 686.725 128.383 682.957 146.508 671.995C152.47 668.389 155.304 664.462 155.31 660.578V614.214C155.29 618.089 152.455 622.006 146.508 625.603C128.383 636.565 88.2404 640.318 56.8469 633.989C35.7673 629.74 24.0005 622.028 24.0259 614.098H24.0122Z" fill="url(#paint4_linear_63_230)"/>
<path id="path4755_5" d="M146.511 625.771C142.202 628.378 136.465 630.664 129.627 632.496C122.788 634.329 114.983 635.674 106.656 636.453C98.3293 637.232 89.6445 637.431 81.0975 637.039C72.5505 636.646 64.3088 635.669 56.843 634.164C49.3773 632.659 42.8338 630.655 37.5862 628.267C32.3386 625.879 28.4898 623.153 26.2595 620.245C24.0291 617.338 23.461 614.305 24.5876 611.321C25.7142 608.337 28.5133 605.459 32.8252 602.852C37.134 600.245 42.8714 597.96 49.7099 596.127C56.5483 594.294 64.3537 592.95 72.6804 592.17C81.0071 591.391 89.6919 591.192 98.2389 591.585C106.786 591.977 115.028 592.954 122.493 594.459C129.959 595.964 136.503 597.968 141.75 600.356C146.998 602.745 150.847 605.47 153.077 608.378C155.307 611.286 155.875 614.318 154.749 617.303C153.622 620.287 150.823 623.165 146.511 625.771Z" fill="#00527F"/>
<path id="path2775_5" fill-rule="evenodd" clip-rule="evenodd" d="M122.733 612.52L114.492 617.504L143.702 623.393L138.208 626.716L108.998 620.827L100.758 625.811L95.2803 615.846L122.733 612.52Z" fill="white"/>
<path id="path4757_5" fill-rule="evenodd" clip-rule="evenodd" d="M78.5781 602.813L70.3374 607.796L41.1276 601.908L35.6338 605.231L64.8435 611.119L56.6028 616.103L84.0555 612.777L78.5781 602.813Z" fill="white"/>
<path id="path4759_5" fill-rule="evenodd" clip-rule="evenodd" d="M86.6334 628.238L75.2147 625.937L92.079 615.737L84.4665 614.203L67.6023 624.402L56.1836 622.1L61.9024 630.918L86.6334 628.238Z" fill="white"/>
<path id="path4761_5" fill-rule="evenodd" clip-rule="evenodd" d="M123.152 606.524L111.733 604.222L94.8693 614.421L87.2568 612.886L104.121 602.687L92.702 600.385L117.433 597.705L123.152 606.524Z" fill="white"/>
</g>
<path id="path3798_5" d="M88.256 591.398C66.0924 591.572 44.7223 595.666 32.8278 602.859C26.955 606.411 24.1151 610.276 24.0262 614.104H24.0125V660.583H24.0262C24.0846 668.483 35.8426 676.167 56.8471 680.402C88.2406 686.731 128.383 682.963 146.508 672.001C152.471 668.395 155.305 664.468 155.31 660.583V614.378C155.35 606.443 143.582 598.711 122.489 594.459C111.698 592.283 99.8655 591.308 88.256 591.398Z" stroke="white"/>
</g>
<g id="RF">
<g id="g3813_6">
<path id="path3759_6" d="M390.012 832.098V878.578H390.026C390.084 886.477 401.842 894.162 422.847 898.396C454.24 904.725 494.383 900.957 512.508 889.995C518.47 886.389 521.304 882.462 521.31 878.578V832.214C521.29 836.089 518.455 840.006 512.508 843.603C494.383 854.565 454.24 858.318 422.847 851.989C401.767 847.74 390.001 840.028 390.026 832.098H390.012Z" fill="url(#paint5_linear_63_230)"/>
<path id="path4755_6" d="M512.511 843.771C508.202 846.378 502.465 848.664 495.627 850.496C488.788 852.329 480.983 853.674 472.656 854.453C464.329 855.232 455.644 855.431 447.097 855.039C438.55 854.646 430.309 853.669 422.843 852.164C415.377 850.659 408.834 848.655 403.586 846.267C398.339 843.879 394.49 841.153 392.259 838.245C390.029 835.338 389.461 832.305 390.588 829.321C391.714 826.337 394.513 823.459 398.825 820.852C403.134 818.245 408.871 815.96 415.71 814.127C422.548 812.294 430.354 810.95 438.68 810.17C447.007 809.391 455.692 809.192 464.239 809.585C472.786 809.977 481.028 810.954 488.493 812.459C495.959 813.964 502.503 815.968 507.75 818.356C512.998 820.745 516.847 823.47 519.077 826.378C521.307 829.286 521.875 832.318 520.749 835.303C519.622 838.287 516.823 841.165 512.511 843.771Z" fill="#00527F"/>
<path id="path2775_6" fill-rule="evenodd" clip-rule="evenodd" d="M488.733 830.52L480.492 835.504L509.702 841.393L504.208 844.716L474.998 838.827L466.758 843.811L461.28 833.846L488.733 830.52Z" fill="white"/>
<path id="path4757_6" fill-rule="evenodd" clip-rule="evenodd" d="M444.578 820.813L436.337 825.796L407.128 819.908L401.634 823.231L430.844 829.119L422.603 834.103L450.055 830.777L444.578 820.813Z" fill="white"/>
<path id="path4759_6" fill-rule="evenodd" clip-rule="evenodd" d="M452.633 846.238L441.215 843.937L458.079 833.737L450.467 832.203L433.602 842.402L422.184 840.1L427.902 848.918L452.633 846.238Z" fill="white"/>
<path id="path4761_6" fill-rule="evenodd" clip-rule="evenodd" d="M489.152 824.524L477.733 822.222L460.869 832.421L453.257 830.886L470.121 820.687L458.702 818.385L483.433 815.705L489.152 824.524Z" fill="white"/>
</g>
</g>
<path id="B" d="M90.584 275.48C91.8853 275.757 92.9307 276.408 93.72 277.432C94.5093 278.435 94.904 279.587 94.904 280.888C94.904 282.765 94.2427 284.259 92.92 285.368C91.6187 286.456 89.7947 287 87.448 287H76.984V264.536H87.096C89.3787 264.536 91.16 265.059 92.44 266.104C93.7413 267.149 94.392 268.568 94.392 270.36C94.392 271.683 94.04 272.781 93.336 273.656C92.6533 274.531 91.736 275.139 90.584 275.48ZM82.456 273.624H86.04C86.936 273.624 87.6187 273.432 88.088 273.048C88.5787 272.643 88.824 272.056 88.824 271.288C88.824 270.52 88.5787 269.933 88.088 269.528C87.6187 269.123 86.936 268.92 86.04 268.92H82.456V273.624ZM86.488 282.584C87.4053 282.584 88.1093 282.381 88.6 281.976C89.112 281.549 89.368 280.941 89.368 280.152C89.368 279.363 89.1013 278.744 88.568 278.296C88.056 277.848 87.3413 277.624 86.424 277.624H82.456V282.584H86.488Z" fill="#FBFFFE"/>
<path id="C" d="M795.056 278.736C795.056 276.517 795.536 274.544 796.496 272.816C797.456 271.067 798.789 269.712 800.496 268.752C802.224 267.771 804.176 267.28 806.352 267.28C809.019 267.28 811.301 267.984 813.2 269.392C815.099 270.8 816.368 272.72 817.008 275.152H810.992C810.544 274.213 809.904 273.499 809.072 273.008C808.261 272.517 807.333 272.272 806.288 272.272C804.603 272.272 803.237 272.859 802.192 274.032C801.147 275.205 800.624 276.773 800.624 278.736C800.624 280.699 801.147 282.267 802.192 283.44C803.237 284.613 804.603 285.2 806.288 285.2C807.333 285.2 808.261 284.955 809.072 284.464C809.904 283.973 810.544 283.259 810.992 282.32H817.008C816.368 284.752 815.099 286.672 813.2 288.08C811.301 289.467 809.019 290.16 806.352 290.16C804.176 290.16 802.224 289.68 800.496 288.72C798.789 287.739 797.456 286.384 796.496 284.656C795.536 282.928 795.056 280.955 795.056 278.736Z" fill="#FBFFFE"/>
<path id="E" d="M809.456 651.92V656.464H816.784V660.688H809.456V665.616H817.744V670H803.984V647.536H817.744V651.92H809.456Z" fill="#FBFFFE"/>
<path id="D" d="M84.4 648.536C86.768 648.536 88.8373 649.005 90.608 649.944C92.3787 650.883 93.744 652.205 94.704 653.912C95.6853 655.597 96.176 657.549 96.176 659.768C96.176 661.965 95.6853 663.917 94.704 665.624C93.744 667.331 92.368 668.653 90.576 669.592C88.8053 670.531 86.7467 671 84.4 671H75.984V648.536H84.4ZM84.048 666.264C86.1173 666.264 87.728 665.699 88.88 664.568C90.032 663.437 90.608 661.837 90.608 659.768C90.608 657.699 90.032 656.088 88.88 654.936C87.728 653.784 86.1173 653.208 84.048 653.208H81.456V666.264H84.048Z" fill="#FBFFFE"/>
<path id="A" d="M443.968 83.032H435.584L434.24 87H428.512L436.64 64.536H442.976L451.104 87H445.312L443.968 83.032ZM442.56 78.808L439.776 70.584L437.024 78.808H442.56Z" fill="#FBFFFE"/>
<path id="F" d="M460.608 867.536V871.92H451.456V876.656H458.304V880.912H451.456V890H445.984V867.536H460.608Z" fill="#FBFFFE"/>
</g>
<defs>
<linearGradient id="paint0_linear_63_230" x1="378.012" y1="65.7829" x2="509.31" y2="65.7829" gradientUnits="userSpaceOnUse">
<stop stop-color="#00527F"/>
<stop offset="1" stop-color="#8AAAC0"/>
</linearGradient>
<linearGradient id="paint1_linear_63_230" x1="25.0122" y1="264.783" x2="156.31" y2="264.783" gradientUnits="userSpaceOnUse">
<stop stop-color="#00527F"/>
<stop offset="1" stop-color="#8AAAC0"/>
</linearGradient>
<linearGradient id="paint2_linear_63_230" x1="740.012" y1="267.783" x2="871.31" y2="267.783" gradientUnits="userSpaceOnUse">
<stop stop-color="#00527F"/>
<stop offset="1" stop-color="#8AAAC0"/>
</linearGradient>
<linearGradient id="paint3_linear_63_230" x1="743.012" y1="650.783" x2="874.31" y2="650.783" gradientUnits="userSpaceOnUse">
<stop stop-color="#00527F"/>
<stop offset="1" stop-color="#8AAAC0"/>
</linearGradient>
<linearGradient id="paint4_linear_63_230" x1="24.0122" y1="648.783" x2="155.31" y2="648.783" gradientUnits="userSpaceOnUse">
<stop stop-color="#00527F"/>
<stop offset="1" stop-color="#8AAAC0"/>
</linearGradient>
<linearGradient id="paint5_linear_63_230" x1="390.012" y1="866.783" x2="521.31" y2="866.783" gradientUnits="userSpaceOnUse">
<stop stop-color="#00527F"/>
<stop offset="1" stop-color="#8AAAC0"/>
</linearGradient>
</defs>
</svg>
