<svg width="1842" height="222" viewBox="0 0 1842 222" fill="none" xmlns="http://www.w3.org/2000/svg">
<g id="Group 3">
<g id="wave (1) 2" clip-path="url(#clip0_41_39)">
<path id="Vector" d="M-54.6958 151.591L-8.03351 130.468C51.5 91.6173 131.681 40.2515 225.55 45.2099C318.466 50.1683 411.927 130.765 504.435 151.591C598.304 172.416 692.173 162.499 784.681 135.724C878.142 108.948 942.631 52.5826 1036.5 41.6741C1222.5 -2.96536 1281.5 58.607 1361.5 90.2914C1454.14 126.984 1531.55 194.233 1624.06 199.191C1717.79 204.15 1817.39 130.816 1865 109.296L1904.3 119.857V-38.8124H1857.64C1810.98 -38.8124 1717.93 -38.8124 1624.06 -38.8124C1531.14 -38.8124 1437.68 -38.8124 1345.17 -38.8124C1251.3 -38.8124 1157.44 -38.8124 1064.93 -38.8124C971.467 -38.8124 878.55 -38.8124 784.681 -38.8124C691.629 -38.8124 598.304 -38.8124 504.435 -38.8124C411.791 -38.8124 318.058 -38.8124 225.55 -38.8124C131.817 -38.8124 39.1729 -38.8124 -8.44164 -38.8124H-54.6958V151.591Z" fill="#587357" fill-opacity="0.83"/>
</g>
<g id="wave (1) 1" clip-path="url(#clip1_41_39)">
<path id="Vector_2" d="M-54.6958 115.056L-8.03351 93.5799C38.6288 71.7007 131.681 29.354 225.55 34.3952C318.466 39.4365 411.927 93.8824 504.435 115.056C598.304 136.229 692.173 126.147 784.681 98.9237C878.142 71.7007 971.058 29.354 1064.93 18.2632C1157.98 7.17233 1251.3 29.354 1345.17 66.6595C1437.82 103.965 1531.55 158.411 1624.06 163.452C1717.79 168.493 1810.44 126.147 1858.05 104.267L1904.3 82.7916V-78.5294H1857.64C1810.98 -78.5294 1717.93 -78.5294 1624.06 -78.5294C1531.14 -78.5294 1437.68 -78.5294 1345.17 -78.5294C1251.3 -78.5294 1157.44 -78.5294 1064.93 -78.5294C971.467 -78.5294 878.55 -78.5294 784.681 -78.5294C691.629 -78.5294 598.304 -78.5294 504.435 -78.5294C411.791 -78.5294 318.058 -78.5294 225.55 -78.5294C131.817 -78.5294 39.1729 -78.5294 -8.44164 -78.5294H-54.6958V115.056Z" fill="#7F9F7E"/>
</g>
</g>
<defs>
<clipPath id="clip0_41_39">
<rect width="1959" height="317.338" fill="white" transform="translate(-3 -95.3383)"/>
</clipPath>
<clipPath id="clip1_41_39">
<rect width="1959" height="322.642" fill="white" transform="translate(-3 -136)"/>
</clipPath>
</defs>
</svg>
